<svg width="48" height="48" viewBox="0 0 48 48" fill="none" xmlns="http://www.w3.org/2000/svg">
<path d="M24.1 38L29.8 32.35L24.1 26.7L22 28.8L24.15 30.95C23.2167 30.9833 22.3083 30.8333 21.425 30.5C20.5417 30.1667 19.75 29.65 19.05 28.95C18.3833 28.2833 17.875 27.5167 17.525 26.65C17.175 25.7833 17 24.9167 17 24.05C17 23.4833 17.075 22.9167 17.225 22.35C17.375 21.7833 17.5833 21.2333 17.85 20.7L15.65 18.5C15.0833 19.3333 14.6667 20.2167 14.4 21.15C14.1333 22.0833 14 23.0333 14 24C14 25.2667 14.25 26.5167 14.75 27.75C15.25 28.9833 15.9833 30.0833 16.95 31.05C17.9167 32.0167 19 32.7417 20.2 33.225C21.4 33.7083 22.6333 33.9667 23.9 34L22 35.9L24.1 38ZM32.35 29.5C32.9167 28.6667 33.3333 27.7833 33.6 26.85C33.8667 25.9167 34 24.9667 34 24C34 22.7333 33.7583 21.475 33.275 20.225C32.7917 18.975 32.0667 17.8667 31.1 16.9C30.1333 15.9333 29.0417 15.2167 27.825 14.75C26.6083 14.2833 25.3667 14.05 24.1 14.05L26 12.1L23.9 10L18.2 15.65L23.9 21.3L26 19.2L23.8 17C24.7 17 25.6167 17.175 26.55 17.525C27.4833 17.875 28.2833 18.3833 28.95 19.05C29.6167 19.7167 30.125 20.4833 30.475 21.35C30.825 22.2167 31 23.0833 31 23.95C31 24.5167 30.925 25.0833 30.775 25.65C30.625 26.2167 30.4167 26.7667 30.15 27.3L32.35 29.5ZM24 44C21.2667 44 18.6833 43.475 16.25 42.425C13.8167 41.375 11.6917 39.9417 9.875 38.125C8.05833 36.3083 6.625 34.1833 5.575 31.75C4.525 29.3167 4 26.7333 4 24C4 21.2333 4.525 18.6333 5.575 16.2C6.625 13.7667 8.05833 11.65 9.875 9.85C11.6917 8.05 13.8167 6.625 16.25 5.575C18.6833 4.525 21.2667 4 24 4C26.7667 4 29.3667 4.525 31.8 5.575C34.2333 6.625 36.35 8.05 38.15 9.85C39.95 11.65 41.375 13.7667 42.425 16.2C43.475 18.6333 44 21.2333 44 24C44 26.7333 43.475 29.3167 42.425 31.75C41.375 34.1833 39.95 36.3083 38.15 38.125C36.35 39.9417 34.2333 41.375 31.8 42.425C29.3667 43.475 26.7667 44 24 44ZM24 41C28.7333 41 32.75 39.3417 36.05 36.025C39.35 32.7083 41 28.7 41 24C41 19.2667 39.35 15.25 36.05 11.95C32.75 8.65 28.7333 7 24 7C19.3 7 15.2917 8.65 11.975 11.95C8.65833 15.25 7 19.2667 7 24C7 28.7 8.65833 32.7083 11.975 36.025C15.2917 39.3417 19.3 41 24 41Z" fill="black"/>
</svg>
