<svg width="48" height="48" viewBox="0 0 48 48" fill="none" xmlns="http://www.w3.org/2000/svg">
<rect width="48" height="48" rx="4" fill="black"/>
<g clip-path="url(#clip0_54_31)">
<path fill-rule="evenodd" clip-rule="evenodd" d="M24.0001 10C20.6732 9.99666 17.4538 11.165 14.9189 13.2957C12.3839 15.4264 10.6992 18.3801 10.1665 21.6276C9.63381 24.875 10.288 28.2039 12.0119 31.0177C13.7358 33.8315 16.4167 35.9463 19.5741 36.983C20.2788 37.1105 20.528 36.6771 20.528 36.3116C20.528 35.9462 20.528 35.1133 20.528 33.9575C16.6177 34.7989 15.7926 32.0963 15.7926 32.0963C15.5332 31.2587 14.9821 30.5391 14.2371 30.0652C12.9737 29.2153 14.3402 29.2153 14.3402 29.2153C14.783 29.2772 15.2059 29.4379 15.5766 29.6852C15.9474 29.9326 16.2564 30.2601 16.4801 30.6431C16.6703 30.984 16.9267 31.2845 17.2346 31.5272C17.5424 31.77 17.8957 31.9502 18.2742 32.0576C18.6527 32.165 19.0489 32.1974 19.4401 32.153C19.8313 32.1086 20.2098 31.9883 20.5538 31.7989C20.6078 31.0997 20.9125 30.4427 21.4132 29.9462C18.3021 29.5977 15.0363 28.4079 15.0363 23.1473C15.015 21.7731 15.5288 20.4433 16.4716 19.4334C16.0517 18.2386 16.1008 16.9313 16.6091 15.7705C16.6091 15.7705 17.7865 15.3966 20.4593 17.1898C22.7544 16.5667 25.177 16.5667 27.4722 17.1898C30.145 15.3966 31.3138 15.7705 31.3138 15.7705C31.8292 16.9191 31.8905 18.2169 31.4857 19.4079C32.4284 20.4179 32.9423 21.7476 32.9209 23.1218C32.9209 28.4419 29.6465 29.6062 26.5268 29.9207C26.8613 30.2532 27.1196 30.653 27.2842 31.0929C27.4488 31.5328 27.5158 32.0025 27.4808 32.4703C27.4808 34.323 27.4808 35.8187 27.4808 36.2691C27.4808 36.7196 27.73 37.068 28.4433 36.932C31.5648 35.8679 34.2055 33.7471 35.8989 30.9443C37.5924 28.1415 38.2296 24.837 37.6979 21.6146C37.1663 18.3922 35.5001 15.4593 32.9936 13.334C30.4871 11.2088 27.3017 10.0279 24.0001 10Z" fill="white"/>
</g>
<defs>
<clipPath id="clip0_54_31">
<rect width="28" height="27" fill="white" transform="translate(10 10)"/>
</clipPath>
</defs>
</svg>
