<svg width="48" height="48" viewBox="0 0 48 48" fill="none" xmlns="http://www.w3.org/2000/svg">
<path d="M45.6 0H2.4C1.07452 0 0 1.07452 0 2.4V45.6C0 46.9255 1.07452 48 2.4 48H45.6C46.9255 48 48 46.9255 48 45.6V2.4C48 1.07452 46.9255 0 45.6 0Z" fill="white"/>
<path fill-rule="evenodd" clip-rule="evenodd" d="M34.368 24.24C34.366 23.4999 34.3018 22.7613 34.176 22.032H24V26.22H29.808C29.689 26.8793 29.4372 27.5075 29.068 28.0666C28.6987 28.6256 28.2197 29.1037 27.66 29.472V32.184H31.2C32.2627 31.1591 33.0982 29.9223 33.6522 28.5538C34.2063 27.1852 34.4665 25.7155 34.416 24.24H34.368Z" fill="#4285F4"/>
<path fill-rule="evenodd" clip-rule="evenodd" d="M23.9999 34.8C26.6462 34.8816 29.2231 33.9453 31.1999 32.184L27.7079 29.472C26.6177 30.1723 25.3434 30.5316 24.0479 30.504C22.7092 30.4772 21.4121 30.0341 20.3368 29.2363C19.2616 28.4384 18.4615 27.3255 18.0479 26.052H14.3999V28.8C15.2882 30.5905 16.6559 32.0993 18.3508 33.1586C20.0456 34.218 22.0012 34.7862 23.9999 34.8Z" fill="#34A853"/>
<path fill-rule="evenodd" clip-rule="evenodd" d="M17.9999 26.052C17.5518 24.7207 17.5518 23.2793 17.9999 21.948V19.2H14.3999C13.6598 20.6918 13.2747 22.3346 13.2747 24C13.2747 25.6653 13.6598 27.3081 14.3999 28.8L17.9999 26.004V26.052Z" fill="#FBBC05"/>
<path fill-rule="evenodd" clip-rule="evenodd" d="M23.9999 17.4959C25.5362 17.4674 27.021 18.0501 28.1279 19.1159L31.1999 16.0079C29.2508 14.1801 26.6719 13.1743 23.9999 13.1999C22.0012 13.2138 20.0456 13.782 18.3508 14.8413C16.6559 15.9006 15.2882 17.4095 14.3999 19.1999L17.9999 21.9959C18.4135 20.7225 19.2136 19.6095 20.2889 18.8116C21.3641 18.0138 22.6612 17.5707 23.9999 17.5439V17.4959Z" fill="#EA4335"/>
</svg>
