<svg width="28" height="10" viewBox="0 0 28 10" fill="none" xmlns="http://www.w3.org/2000/svg">
<g clip-path="url(#clip0_5_123)">
<path d="M26.7702 5.26483C26.8726 5.31299 26.9679 5.36232 27.0381 5.45105C27.114 5.54713 27.0911 5.61792 26.9949 5.7037C26.8594 5.82451 26.6863 5.88377 26.5164 5.93769C26.3253 5.99833 26.13 6.04683 25.9347 6.09279C25.7562 6.13481 25.5754 6.16783 25.3952 6.20213C25.2343 6.23274 25.073 6.26159 24.9113 6.28762C24.785 6.30795 24.6576 6.32222 24.5309 6.34021C24.4245 6.35532 24.3184 6.3728 24.2119 6.38754C24.1352 6.39815 24.0581 6.4057 23.9812 6.4151C23.8479 6.43143 23.7147 6.44929 23.5813 6.46428C23.4877 6.47479 23.3937 6.4806 23.3001 6.49027C23.1479 6.50598 22.9959 6.52391 22.8437 6.5394C22.7459 6.54934 22.6478 6.55645 22.5499 6.56507C22.3623 6.58159 22.1748 6.59858 21.9872 6.61474C21.9258 6.62002 21.8643 6.62383 21.8028 6.62743C21.6549 6.63608 21.5068 6.6434 21.3589 6.65275C21.1744 6.66441 20.9901 6.67767 20.8056 6.69003C20.6785 6.69855 20.5514 6.70755 20.4242 6.71484C20.2534 6.72463 20.0826 6.73265 19.9118 6.74208C19.7825 6.74921 19.6534 6.75893 19.5241 6.76469C19.3075 6.77432 19.0907 6.7817 18.8741 6.79006C18.7672 6.79418 18.6604 6.79866 18.5536 6.80249C18.3161 6.811 18.0786 6.81945 17.8411 6.82745C17.7023 6.83213 17.5634 6.83462 17.4247 6.84044C17.266 6.8471 17.1074 6.85764 16.9487 6.86394C16.8699 6.86707 16.7908 6.86449 16.7314 6.86449C16.6214 7.1227 16.5166 7.37115 16.4098 7.61872C16.3119 7.84568 16.1792 8.05265 16.0212 8.241C15.8963 8.38982 15.7614 8.53171 15.5989 8.6421C15.4373 8.75191 15.2808 8.8722 15.1088 8.96293C14.9351 9.05461 14.7474 9.12198 14.5616 9.18799C14.4298 9.23482 14.2918 9.26584 14.1548 9.2961C14.0579 9.31751 13.9585 9.332 13.8595 9.3386C13.713 9.34836 13.5649 9.36045 13.4192 9.34963C13.2148 9.33448 13.009 9.31259 12.8093 9.26875C12.6106 9.22514 12.4136 9.1633 12.2254 9.08628C12.0541 9.01622 11.8933 8.91911 11.7322 8.82649C11.5413 8.71678 11.3743 8.57402 11.2188 8.41946C11.0244 8.22624 10.8649 8.00623 10.7359 7.76365C10.5832 7.47675 10.461 7.17768 10.3593 6.85254C10.1958 6.85254 10.0282 6.85418 9.86054 6.85211C9.66924 6.84976 9.47798 6.84468 9.28673 6.83968C9.16482 6.8365 9.04289 6.83278 8.9211 6.82672C8.70586 6.816 8.49076 6.80233 8.27551 6.79192C8.17742 6.78717 8.07906 6.7884 7.98089 6.78484C7.80854 6.77858 7.6362 6.77158 7.46393 6.76326C7.3305 6.75681 7.19722 6.7471 7.0638 6.74024C6.88672 6.73112 6.7095 6.72432 6.53245 6.71469C6.41147 6.7081 6.29068 6.69825 6.16979 6.69007C5.98327 6.67746 5.79672 6.66546 5.61024 6.6524C5.44034 6.6405 5.27045 6.62834 5.10068 6.61482C4.90263 6.59906 4.70463 6.5825 4.50675 6.56478C4.33369 6.54928 4.16066 6.53324 3.98792 6.51461C3.81374 6.49582 3.64002 6.47274 3.46593 6.45307C3.34216 6.43909 3.2178 6.43001 3.09425 6.41442C2.95333 6.39663 2.81312 6.37325 2.67239 6.35379C2.54146 6.33569 2.41007 6.32084 2.27922 6.30219C2.14075 6.28246 2.00229 6.26212 1.86453 6.23804C1.7154 6.21196 1.56646 6.18411 1.41857 6.15189C1.20038 6.10434 0.980221 6.06229 0.766456 5.99911C0.57516 5.94257 0.389085 5.86593 0.205541 5.78693C0.142142 5.75964 0.0842737 5.70589 0.0398548 5.65124C-0.0306936 5.56444 -0.00332791 5.45804 0.0884608 5.39047C0.24926 5.27209 0.430417 5.19497 0.619821 5.14218C0.929273 5.05594 1.24104 4.97735 1.55375 4.90367C1.81072 4.84313 2.06991 4.79153 2.32919 4.74148C2.50803 4.70695 2.68894 4.68326 2.86847 4.65209C3.02171 4.62549 3.17401 4.59357 3.32723 4.56689C3.48485 4.53945 3.64324 4.51644 3.80099 4.48974C3.92253 4.46916 4.04384 4.44709 4.16483 4.4235C4.34495 4.38837 4.52496 4.35258 4.70453 4.31473C4.89958 4.27361 5.0962 4.23767 5.28829 4.18536C5.58025 4.10586 5.87106 4.02075 6.15827 3.92565C6.3898 3.84898 6.61075 3.74553 6.8277 3.63153C7.05302 3.51314 7.26399 3.37466 7.46918 3.22641C7.57302 3.15137 7.67242 3.06923 7.76774 2.98352C8.01741 2.75902 8.26344 2.53048 8.51147 2.30416C8.68974 2.1415 8.86602 1.97649 9.04853 1.81871C9.19979 1.68794 9.35752 1.5645 9.51491 1.44103C9.62145 1.35745 9.72979 1.27562 9.84195 1.19985C10.0031 1.091 10.1653 0.98304 10.3329 0.884766C10.4737 0.802228 10.6214 0.730836 10.7689 0.660418C10.9386 0.579371 11.1081 0.496253 11.2837 0.429648C11.4949 0.349531 11.7103 0.279012 11.9276 0.217113C12.1207 0.162076 12.3181 0.120789 12.5151 0.0806843C12.6205 0.0592319 12.729 0.0535152 12.836 0.0399593C13.1381 0.00169295 13.4419 -0.00625191 13.7454 0.00423049C13.9882 0.0126121 14.2312 0.024612 14.4705 0.0763931C14.6636 0.118187 14.861 0.142112 15.0516 0.19268C15.2797 0.253207 15.5045 0.327906 15.7269 0.407268C15.9019 0.469738 16.0737 0.543122 16.2422 0.621772C16.3957 0.693419 16.5464 0.772807 16.692 0.859393C16.8813 0.971996 17.0682 1.08961 17.2491 1.21522C17.4241 1.33671 17.5942 1.46605 17.759 1.60105C17.9676 1.7719 18.1694 1.95107 18.3725 2.12847C18.4526 2.19841 18.5286 2.27299 18.6061 2.34591C18.7551 2.48622 18.8982 2.63344 19.0539 2.76578C19.2849 2.96205 19.5207 3.15323 19.7625 3.33599C19.895 3.43617 20.0403 3.52125 20.1863 3.60157C20.5382 3.79525 20.9101 3.94341 21.2967 4.05074C21.5966 4.13401 21.9 4.20516 22.203 4.27686C22.4146 4.32695 22.6276 4.37245 22.8412 4.41336C23.0419 4.45179 23.2446 4.48021 23.4459 4.51546C23.625 4.54682 23.8034 4.58252 23.9824 4.61441C24.1318 4.64103 24.282 4.66345 24.4314 4.69041C24.6062 4.72197 24.7811 4.75365 24.955 4.79021C25.3433 4.87186 25.7332 4.94733 26.1179 5.04361C26.3384 5.09877 26.5498 5.18976 26.7702 5.26483ZM10.7905 4.44843C10.792 4.4501 10.7935 4.45177 10.794 4.46311C10.7904 4.47025 10.7859 4.47706 10.7835 4.48456C10.7217 4.68055 10.6592 4.87658 10.6442 5.08329C10.6341 5.22271 10.6246 5.36228 10.62 5.50195C10.6173 5.58372 10.642 5.59908 10.7212 5.5909C10.7682 5.58605 10.8161 5.59011 10.8636 5.5899C10.8718 5.58986 10.882 5.59143 10.888 5.58737C11.0287 5.49159 11.1692 5.39786 11.2203 5.21848C11.269 5.04715 11.3207 4.87608 11.383 4.70932C11.4848 4.43668 11.6337 4.18952 11.83 3.97433C12.0632 3.71885 12.3387 3.52211 12.66 3.38849C12.8917 3.29215 13.1319 3.2352 13.3803 3.21734C13.5054 3.20835 13.6333 3.21414 13.7579 3.22987C13.9116 3.24927 14.0662 3.2751 14.2149 3.31741C14.5356 3.40862 14.8185 3.57507 15.0665 3.79612C15.2317 3.94344 15.374 4.11209 15.4901 4.30314C15.6331 4.53855 15.7388 4.78844 15.8061 5.05475C15.854 5.24442 15.918 5.42306 16.1009 5.52732C16.1413 5.55035 16.1834 5.57344 16.2277 5.58583C16.2624 5.59556 16.3028 5.5835 16.3389 5.59049C16.4235 5.60688 16.4578 5.5877 16.4554 5.50475C16.4508 5.34634 16.4548 5.18546 16.4274 5.0305C16.393 4.83559 16.3307 4.6456 16.2851 4.44857C16.2865 4.44684 16.2879 4.44511 16.2965 4.44985C16.3214 4.53186 16.3442 4.61456 16.3715 4.69574C16.4496 4.92783 16.478 5.16734 16.4812 5.41068C16.4827 5.51587 16.4815 5.6211 16.4815 5.72632C16.4874 5.72859 16.4932 5.73087 16.4991 5.73314C16.5098 5.71774 16.5274 5.70339 16.53 5.68673C16.5378 5.63631 16.5438 5.58493 16.5431 5.53402C16.5417 5.42463 16.5221 5.31364 16.5352 5.2064C16.5493 5.09078 16.526 4.98267 16.4971 4.8776C16.4426 4.67904 16.3788 4.48217 16.3048 4.29004C16.2108 4.04618 16.0703 3.82703 15.9074 3.62293C15.849 3.54974 15.7863 3.47999 15.7256 3.40867C15.7308 3.40477 15.736 3.40087 15.7412 3.39697C15.9495 3.60666 16.1126 3.84894 16.2494 4.11224C16.3867 4.3764 16.4759 4.65612 16.5414 4.94411C16.4366 4.24703 16.1111 3.66602 15.6041 3.17899C15.6262 3.18341 15.6408 3.19306 15.6526 3.20539C15.7262 3.28231 15.8005 3.35859 15.8721 3.43739C16.0532 3.63686 16.2086 3.85511 16.317 4.10201C16.3853 4.25735 16.4445 4.41797 16.492 4.58081C16.5705 4.84966 16.6049 5.12638 16.6073 5.40693C16.6077 5.4514 16.6195 5.49577 16.6261 5.54019C16.63 5.54016 16.6339 5.54014 16.6378 5.54011C16.6415 5.51743 16.6452 5.49476 16.6489 5.47208C16.6514 5.47235 16.654 5.47263 16.6565 5.4729C16.6565 5.48926 16.6565 5.50561 16.6565 5.52197C16.6565 5.53775 16.6565 5.55353 16.6565 5.56931C16.6982 4.74332 16.4397 4.0185 15.9046 3.38821C15.9233 3.39241 15.9359 3.39902 15.9441 3.40918C16.0195 3.50253 16.0981 3.59363 16.1682 3.69088C16.3085 3.88558 16.4293 4.09253 16.5178 4.3159C16.5782 4.46837 16.6367 4.62282 16.6792 4.7809C16.7383 5.00025 16.7814 5.22386 16.8316 5.44558C16.8454 5.50628 16.8886 5.53378 16.9388 5.51499C17.0474 5.47442 17.0943 5.38033 17.0569 5.2707C16.9956 5.09066 16.9273 4.91287 16.8705 4.73144C16.773 4.41997 16.6501 4.12008 16.4857 3.83788C16.3494 3.60371 16.1922 3.3843 16.0006 3.19199C15.8945 3.08542 15.7871 2.97786 15.668 2.8868C15.5114 2.76705 15.3484 2.6533 15.1779 2.55454C14.8934 2.38966 14.588 2.26969 14.2642 2.20792C14.0709 2.17106 13.8745 2.14314 13.6783 2.13026C13.4422 2.11475 13.2066 2.13719 12.9721 2.17597C12.6927 2.22218 12.424 2.30253 12.1664 2.41664C11.8392 2.56151 11.5369 2.75024 11.2752 2.99443C11.1144 3.14455 10.9609 3.30653 10.827 3.4807C10.5729 3.81098 10.3889 4.18144 10.2557 4.57695C10.1841 4.78947 10.105 4.99949 10.0328 5.21182C9.9792 5.36965 9.99534 5.42586 10.1057 5.49623C10.1763 5.54124 10.2261 5.52165 10.244 5.43961C10.2774 5.28622 10.31 5.13262 10.3441 4.97937C10.4063 4.70039 10.4981 4.43117 10.6202 4.17295C10.7204 3.96101 10.8478 3.76487 10.9885 3.57784C11.0405 3.50876 11.1003 3.4455 11.1565 3.37959C11.1639 3.38368 11.1712 3.38777 11.1786 3.39185C10.6352 4.01878 10.3775 4.74402 10.4199 5.57079C10.4199 5.53784 10.4199 5.50489 10.4199 5.47194C10.4222 5.47206 10.4245 5.47218 10.4268 5.47229C10.4309 5.49528 10.435 5.51826 10.4391 5.54124C10.445 5.54089 10.451 5.54054 10.4569 5.54018C10.474 5.09042 10.5228 4.64703 10.6998 4.22747C10.8732 3.81621 11.1345 3.47082 11.4626 3.17411C11.3189 3.35182 11.1656 3.52258 11.0266 3.70429C10.8883 3.88509 10.787 4.08961 10.7028 4.30081C10.62 4.50818 10.5568 4.72163 10.5334 4.94459C10.567 4.82902 10.5973 4.71262 10.6296 4.5968C10.6944 4.36506 10.7991 4.15088 10.9186 3.94318C11.0242 3.75961 11.1523 3.59273 11.2932 3.4354C11.3088 3.41797 11.3317 3.40708 11.3619 3.38553C11.2576 3.51781 11.1605 3.63565 11.0692 3.75782C10.9226 3.95393 10.8052 4.16831 10.7225 4.39766C10.6266 4.66343 10.5218 4.92979 10.5439 5.2222C10.5446 5.23255 10.5436 5.24302 10.5436 5.25343C10.5438 5.39918 10.5431 5.54495 10.5458 5.69065C10.5461 5.70499 10.5677 5.71893 10.5794 5.73306C10.5884 5.73033 10.5975 5.7276 10.6065 5.72486C10.6065 5.54699 10.6032 5.36903 10.608 5.19129C10.6102 5.11055 10.6251 5.02962 10.6403 4.94992C10.6592 4.85101 10.6806 4.75225 10.7079 4.65541C10.7283 4.58301 10.7599 4.51375 10.7905 4.44843ZM12.4109 3.55213C12.1581 3.68735 11.9484 3.87594 11.7721 4.09802C11.5418 4.38819 11.392 4.71849 11.3154 5.08292C11.2834 5.2352 11.263 5.3928 11.1812 5.53096C11.1636 5.56073 11.1465 5.59082 11.127 5.62451C11.28 5.64294 11.4232 5.66353 11.5671 5.67667C11.7428 5.69273 11.919 5.70436 12.0952 5.71454C12.2785 5.72513 12.4618 5.73401 12.6453 5.73945C12.869 5.7461 13.0929 5.75158 13.3167 5.75163C13.5343 5.75167 13.7519 5.74392 13.9695 5.74012C14.2267 5.73563 14.484 5.73241 14.7412 5.72716C14.8277 5.72539 14.9143 5.72122 15.0006 5.71444C15.1945 5.69921 15.3883 5.68249 15.582 5.66474C15.7026 5.65368 15.8229 5.63962 15.9509 5.62612C15.9284 5.58775 15.9113 5.55851 15.8941 5.52933C15.8094 5.38549 15.7932 5.22117 15.7572 5.06318C15.7013 4.81703 15.6139 4.58294 15.4868 4.36571C15.3411 4.11682 15.1532 3.90361 14.9247 3.72522C14.7486 3.58775 14.5588 3.47678 14.3493 3.40137C14.2364 3.36076 14.1215 3.32271 14.0045 3.29749C13.8917 3.27315 13.7752 3.2631 13.6597 3.25397C13.5934 3.24871 13.5247 3.26679 13.4591 3.25853C13.3033 3.23892 13.1542 3.27491 13.0075 3.31133C12.882 3.34249 12.7624 3.39835 12.6415 3.44661C12.566 3.47677 12.4929 3.51309 12.4109 3.55213ZM12.4818 8.34696C12.3944 8.31283 12.3025 8.28692 12.2205 8.24269C12.0872 8.17081 11.9608 8.0863 11.8307 8.00828C11.659 7.90523 11.5119 7.77319 11.375 7.6283C11.337 7.5881 11.2884 7.55748 11.2528 7.51558C11.2056 7.4601 11.1655 7.39847 11.1239 7.33838C11.0491 7.23015 10.9741 7.12198 10.9018 7.01205C10.8587 6.94657 10.8409 6.8579 10.7303 6.8692C10.6568 6.87672 10.5819 6.87063 10.5008 6.87063C10.8222 7.56664 11.3093 8.09662 11.9835 8.45312C12.6596 8.81057 13.3747 8.91568 14.1257 8.78975C15.2391 8.60308 16.2041 7.78363 16.5648 6.86767C16.4926 6.86767 16.4206 6.86822 16.3487 6.86753C16.2634 6.86671 16.2101 6.9051 16.1933 6.99064C16.1925 6.99512 16.1848 6.99787 16.182 7.00244C16.1357 7.07804 16.092 7.15535 16.0429 7.22909C15.9965 7.29878 15.9496 7.36934 15.8938 7.43131C15.8125 7.52164 15.7225 7.60414 15.6373 7.69097C15.6072 7.72158 15.584 7.75995 15.5509 7.78631C15.4791 7.84347 15.4007 7.8923 15.3292 7.94975C15.2089 8.04631 15.0782 8.12533 14.9403 8.19276C14.8436 8.24006 14.746 8.28636 14.6461 8.32621C14.5569 8.36175 14.4648 8.39071 14.3725 8.41729C14.2738 8.44569 14.1737 8.4694 14.0736 8.49224C14.0119 8.50631 13.9494 8.51956 13.8866 8.52474C13.8145 8.53068 13.7417 8.52629 13.6693 8.52814C13.5476 8.53125 13.4259 8.54026 13.3044 8.53775C13.2435 8.53649 13.1835 8.50836 13.1224 8.50456C12.9962 8.49673 12.8747 8.47018 12.7546 8.43269C12.6661 8.40505 12.577 8.37937 12.4818 8.34696ZM13.9861 6.89053C13.9788 6.89362 13.9715 6.89934 13.9642 6.89943C13.843 6.90089 13.7218 6.90192 13.6006 6.90245C13.5031 6.90288 13.4056 6.90349 13.3082 6.90224C13.207 6.90094 13.1059 6.89688 13.0048 6.89518C12.8695 6.89291 12.7343 6.89114 12.5991 6.89027C12.4748 6.88947 12.3505 6.89014 12.2262 6.89015C12.0797 6.89016 11.9333 6.89015 11.7813 6.89015C12.837 8.17583 14.5876 7.85839 15.2855 6.89004C15.1163 6.89004 14.9473 6.88928 14.7784 6.89028C14.6421 6.89109 14.5057 6.89474 14.3694 6.89583C14.2442 6.89683 14.119 6.89609 13.9861 6.89053ZM15.5371 7.24056C15.625 7.12373 15.713 7.0069 15.805 6.88462C15.6868 6.88462 15.5843 6.88132 15.4822 6.88573C15.4081 6.88893 15.3329 6.87469 15.2727 6.9519C15.0922 7.18332 14.8659 7.36343 14.6077 7.50195C14.3348 7.64833 14.0419 7.73659 13.7346 7.76228C13.5152 7.78061 13.2929 7.77316 13.0767 7.72412C12.8394 7.67028 12.6117 7.58744 12.4001 7.46392C12.168 7.32845 11.9684 7.15572 11.7963 6.94989C11.7761 6.92571 11.7466 6.89372 11.7204 6.89271C11.5752 6.88714 11.4298 6.89004 11.2874 6.89004C11.3042 6.9179 11.3232 6.95106 11.3437 6.98327C11.4683 7.17873 11.6195 7.35158 11.7918 7.50606C11.848 7.55651 11.9047 7.6072 11.9657 7.65154C12.155 7.78903 12.3576 7.9034 12.5759 7.98857C12.8236 8.08523 13.081 8.14682 13.3456 8.16253C13.5653 8.17557 13.7862 8.17029 14.0045 8.12813C14.2302 8.08454 14.448 8.01715 14.6567 7.92103C14.8704 7.82257 15.0673 7.69573 15.2447 7.54235C15.348 7.45301 15.4366 7.34668 15.5371 7.24056ZM15.5751 7.71511C15.8328 7.47376 16.0482 7.20052 16.208 6.88484C16.1346 6.84879 16.1311 6.92249 16.0866 6.96394C16.1023 6.92591 16.111 6.9048 16.1197 6.88369C16.1155 6.87864 16.1113 6.87359 16.1072 6.86855C16.0861 6.88435 16.0621 6.89755 16.0448 6.91678C16.0306 6.93264 16.0262 6.9569 16.0142 6.97529C15.8321 7.25346 15.6254 7.50906 15.3625 7.71742C15.1734 7.86723 14.9736 7.99618 14.7549 8.09853C14.4374 8.24718 14.1037 8.33827 13.7559 8.36163C13.5265 8.37703 13.2953 8.37129 13.0656 8.32962C12.7404 8.27065 12.4323 8.16889 12.1434 8.00841C11.8486 7.84468 11.5885 7.63911 11.3669 7.38358C11.2403 7.23753 11.1279 7.08268 11.0303 6.91618C11.0181 6.89541 10.9892 6.88443 10.9681 6.86891C10.9641 6.87393 10.9602 6.87894 10.9562 6.88396C10.9647 6.90513 10.9732 6.9263 10.9886 6.96467C10.9447 6.92207 10.9407 6.84931 10.8648 6.88628C10.9081 6.96068 10.9491 7.03632 10.9949 7.10895C11.1587 7.3689 11.3607 7.59532 11.593 7.79654C11.7729 7.95243 11.9701 8.08229 12.1814 8.18823C12.3966 8.29605 12.6224 8.37599 12.8588 8.43085C13.0933 8.48524 13.3296 8.50961 13.5679 8.51254C13.6958 8.51412 13.8252 8.49679 13.9519 8.47587C14.1066 8.45032 14.2608 8.41823 14.4122 8.37777C14.6181 8.32276 14.8114 8.23499 14.9982 8.13158C15.2048 8.01713 15.3948 7.88059 15.5751 7.71511ZM16.6815 5.07601C16.7087 5.2251 16.6737 5.38148 16.734 5.52676C16.7715 5.35681 16.7452 5.19358 16.6815 5.03411C16.6815 5.04444 16.6815 5.05478 16.6815 5.07601ZM10.3654 5.50028C10.3759 5.3451 10.3864 5.18992 10.397 5.03474C10.3285 5.18086 10.3179 5.33498 10.3202 5.49074C10.3203 5.50286 10.3331 5.5148 10.3399 5.52683C10.3459 5.52044 10.3518 5.51405 10.3654 5.50028Z" fill="white"/>
<path d="M14.9892 9.46208C15.0078 9.47739 15.0258 9.49365 15.0348 9.5139C15.0386 9.52257 15.027 9.5468 15.0166 9.55167C14.9152 9.59932 14.815 9.65112 14.7098 9.68858C14.5539 9.74406 14.3952 9.79211 14.2358 9.83661C14.1698 9.85502 14.0987 9.85399 14.0305 9.86541C13.8231 9.90015 13.6141 9.90705 13.4046 9.90216C13.3264 9.90034 13.247 9.90163 13.1704 9.88857C12.9763 9.85546 12.7821 9.82052 12.5905 9.77538C12.4806 9.74949 12.3741 9.70625 12.2691 9.66324C12.1986 9.63432 12.135 9.58849 12.0652 9.55728C12.0237 9.53871 12.0317 9.51775 12.0465 9.48925C12.0525 9.47766 12.0579 9.46575 12.0653 9.45055C13.0365 9.70579 14.0104 9.6928 14.9892 9.46208Z" fill="white"/>
<path d="M12.4148 3.54939C12.4929 3.51309 12.566 3.47677 12.6415 3.44661C12.7624 3.39835 12.882 3.34249 13.0075 3.31133C13.1542 3.27491 13.3033 3.23892 13.4591 3.25853C13.5247 3.26679 13.5934 3.24871 13.6597 3.25397C13.7752 3.2631 13.8916 3.27315 14.0045 3.29749C14.1215 3.32271 14.2364 3.36076 14.3493 3.40137C14.5588 3.47678 14.7486 3.58775 14.9247 3.72522C15.1532 3.90361 15.3411 4.11682 15.4867 4.36571C15.6139 4.58294 15.7013 4.81703 15.7572 5.06318C15.7932 5.22117 15.8094 5.38549 15.8941 5.52933C15.9113 5.55851 15.9284 5.58775 15.9509 5.62612C15.8229 5.63962 15.7026 5.65368 15.5819 5.66474C15.3883 5.68249 15.1945 5.69921 15.0006 5.71444C14.9143 5.72122 14.8277 5.72539 14.7412 5.72715C14.484 5.73241 14.2267 5.73563 13.9695 5.74012C13.7519 5.74392 13.5343 5.75167 13.3167 5.75163C13.0929 5.75158 12.869 5.7461 12.6453 5.73945C12.4618 5.73401 12.2785 5.72513 12.0952 5.71454C11.919 5.70436 11.7428 5.69272 11.5671 5.67667C11.4232 5.66353 11.28 5.64294 11.127 5.6245C11.1465 5.59082 11.1636 5.56073 11.1812 5.53096C11.263 5.3928 11.2834 5.2352 11.3154 5.08292C11.392 4.71849 11.5418 4.38819 11.7721 4.09802C11.9484 3.87594 12.1581 3.68735 12.4148 3.54939Z" fill="black"/>
<path d="M16.2805 4.45348C16.3307 4.6456 16.393 4.83559 16.4274 5.03051C16.4548 5.18546 16.4508 5.34634 16.4554 5.50475C16.4577 5.58771 16.4235 5.60688 16.3389 5.59049C16.3028 5.5835 16.2624 5.59556 16.2277 5.58583C16.1834 5.57344 16.1413 5.55036 16.1009 5.52732C15.918 5.42306 15.854 5.24442 15.8061 5.05476C15.7388 4.78845 15.6331 4.53855 15.4901 4.30314C15.374 4.11209 15.2317 3.94345 15.0665 3.79612C14.8185 3.57507 14.5356 3.40862 14.2149 3.31741C14.0662 3.2751 13.9116 3.24927 13.7579 3.22987C13.6333 3.21415 13.5054 3.20835 13.3803 3.21734C13.1319 3.2352 12.8916 3.29215 12.66 3.3885C12.3387 3.52211 12.0632 3.71885 11.83 3.97433C11.6336 4.18952 11.4848 4.43669 11.383 4.70933C11.3207 4.87608 11.269 5.04716 11.2203 5.21848C11.1692 5.39786 11.0287 5.49159 10.888 5.58737C10.882 5.59143 10.8718 5.58986 10.8636 5.5899C10.8161 5.59011 10.7682 5.58605 10.7212 5.59091C10.642 5.59908 10.6173 5.58372 10.62 5.50195C10.6246 5.36228 10.6341 5.22271 10.6442 5.08329C10.6592 4.87658 10.7217 4.68056 10.7835 4.48457C10.7859 4.47706 10.7904 4.47025 10.7986 4.45643C10.8088 4.43017 10.8144 4.41059 10.8241 4.38916C10.8338 4.3677 10.8394 4.34811 10.8492 4.32657C10.8923 4.24257 10.9311 4.16051 10.9741 4.07668C10.9921 4.04692 11.006 4.01894 11.024 3.98929C11.0378 3.9679 11.0476 3.94818 11.0612 3.92702C11.0708 3.91404 11.0767 3.9025 11.0862 3.88952C11.0958 3.87654 11.1017 3.86499 11.111 3.85224C11.1184 3.84227 11.1223 3.83352 11.1295 3.82188C11.1358 3.80862 11.1387 3.79825 11.1456 3.78871C11.1564 3.7817 11.1632 3.77387 11.1742 3.76405C11.183 3.74921 11.1875 3.73636 11.1921 3.7235C11.1892 3.72222 11.1862 3.72093 11.1833 3.71965C11.1753 3.73235 11.1673 3.74506 11.1564 3.7603C11.1501 3.77175 11.1467 3.78068 11.139 3.78983C11.129 3.79808 11.1235 3.80611 11.1144 3.81536C11.107 3.82534 11.1031 3.8341 11.0962 3.84537C11.0868 3.85874 11.0804 3.8696 11.0711 3.88297C11.0617 3.89631 11.0554 3.90713 11.0459 3.92072C11.0323 3.94248 11.0219 3.96147 11.0082 3.98338C10.9905 4.01351 10.976 4.04074 10.9582 4.07095C10.9147 4.15598 10.8746 4.23803 10.8311 4.32301C10.8216 4.34482 10.8156 4.3637 10.8062 4.38541C10.7975 4.40653 10.7919 4.42481 10.7864 4.44309C10.7598 4.51375 10.7283 4.58301 10.7079 4.65541C10.6806 4.75226 10.6592 4.85102 10.6403 4.94992C10.6251 5.02962 10.6102 5.11056 10.608 5.19129C10.6032 5.36903 10.6065 5.54699 10.6065 5.72487C10.5975 5.7276 10.5884 5.73033 10.5794 5.73307C10.5677 5.71894 10.5461 5.70499 10.5458 5.69065C10.5431 5.54495 10.5438 5.39918 10.5436 5.25344C10.5435 5.24302 10.5446 5.23255 10.5439 5.22221C10.5218 4.9298 10.6266 4.66343 10.7225 4.39766C10.8052 4.16831 10.9226 3.95393 11.0691 3.75782C11.1605 3.63565 11.2576 3.51782 11.3619 3.38554C11.3317 3.40708 11.3088 3.41798 11.2932 3.43541C11.1523 3.59273 11.0242 3.75961 10.9186 3.94318C10.7991 4.15088 10.6944 4.36506 10.6296 4.5968C10.5972 4.71262 10.567 4.82902 10.5334 4.94459C10.5568 4.72164 10.62 4.50818 10.7028 4.30082C10.787 4.08961 10.8883 3.88509 11.0266 3.70429C11.1656 3.52259 11.3189 3.35182 11.4626 3.17412C11.1345 3.47082 10.8732 3.81622 10.6998 4.22747C10.5228 4.64704 10.474 5.09042 10.4569 5.54019C10.451 5.54054 10.445 5.54089 10.4391 5.54124C10.435 5.51826 10.4309 5.49528 10.4268 5.4723C10.4245 5.47218 10.4222 5.47206 10.4199 5.47195C10.4199 5.50489 10.4199 5.53784 10.4199 5.57079C10.3774 4.74403 10.6352 4.01878 11.1786 3.39186C11.1712 3.38777 11.1639 3.38368 11.1565 3.37959C11.1003 3.44551 11.0405 3.50876 10.9885 3.57785C10.8477 3.76487 10.7204 3.96101 10.6202 4.17295C10.4981 4.43117 10.4063 4.70039 10.3441 4.97938C10.31 5.13262 10.2774 5.28622 10.2439 5.43962C10.226 5.52165 10.1763 5.54124 10.1057 5.49623C9.99533 5.42586 9.97919 5.36966 10.0328 5.21183C10.105 4.99949 10.1841 4.78948 10.2557 4.57696C10.3889 4.18144 10.5728 3.81099 10.8269 3.4807C10.9609 3.30653 11.1144 3.14455 11.2752 2.99443C11.5368 2.75024 11.8392 2.56151 12.1663 2.41664C12.424 2.30253 12.6926 2.22219 12.9721 2.17598C13.2066 2.1372 13.4422 2.11475 13.6783 2.13026C13.8745 2.14315 14.0708 2.17106 14.2641 2.20793C14.588 2.26969 14.8934 2.38966 15.1779 2.55455C15.3484 2.65331 15.5114 2.76705 15.668 2.88681C15.7871 2.97786 15.8944 3.08542 16.0006 3.192C16.1922 3.3843 16.3493 3.60371 16.4857 3.83789C16.6501 4.12008 16.773 4.41998 16.8705 4.73144C16.9273 4.91287 16.9956 5.09067 17.0569 5.27071C17.0943 5.38033 17.0474 5.47442 16.9388 5.51499C16.8886 5.53379 16.8454 5.50628 16.8316 5.44559C16.7814 5.22387 16.7383 5.00025 16.6792 4.78091C16.6367 4.62282 16.5782 4.46838 16.5178 4.31591C16.4293 4.09254 16.3085 3.88559 16.1682 3.69088C16.0981 3.59364 16.0195 3.50253 15.9441 3.40918C15.9359 3.39903 15.9233 3.39241 15.9046 3.38821C16.4397 4.0185 16.6982 4.74332 16.6565 5.56932C16.6565 5.55354 16.6565 5.53775 16.6565 5.52197C16.6565 5.50562 16.6565 5.48926 16.6565 5.47291C16.654 5.47263 16.6514 5.47236 16.6489 5.47208C16.6452 5.49476 16.6415 5.51744 16.6377 5.54011C16.6339 5.54014 16.63 5.54016 16.6261 5.54019C16.6195 5.49577 16.6077 5.4514 16.6073 5.40693C16.6049 5.12638 16.5705 4.84966 16.492 4.58082C16.4445 4.41798 16.3853 4.25736 16.317 4.10202C16.2085 3.85512 16.0532 3.63686 15.8721 3.43739C15.8005 3.35859 15.7262 3.28231 15.6526 3.20539C15.6408 3.19306 15.6262 3.18342 15.6041 3.17899C16.111 3.66602 16.4365 4.24703 16.5414 4.94411C16.4759 4.65612 16.3867 4.37641 16.2494 4.11225C16.1126 3.84894 15.9495 3.60667 15.7412 3.39697C15.736 3.40087 15.7308 3.40477 15.7256 3.40867C15.7863 3.47999 15.849 3.54974 15.9074 3.62293C16.0703 3.82704 16.2108 4.04618 16.3048 4.29004C16.3788 4.48218 16.4426 4.67905 16.4971 4.8776C16.526 4.98267 16.5493 5.09079 16.5352 5.2064C16.5221 5.31365 16.5417 5.42464 16.5431 5.53403C16.5438 5.58493 16.5378 5.63631 16.53 5.68673C16.5274 5.7034 16.5098 5.71774 16.4991 5.73315C16.4932 5.73087 16.4873 5.7286 16.4815 5.72632C16.4815 5.62111 16.4826 5.51588 16.4812 5.41068C16.478 5.16735 16.4496 4.92784 16.3715 4.69575C16.3442 4.61456 16.3214 4.53186 16.2901 4.44317C16.2772 4.41795 16.2708 4.39942 16.2616 4.37755C16.253 4.35629 16.2471 4.33835 16.2383 4.31681C16.1949 4.23156 16.1546 4.14992 16.1115 4.06498C16.0958 4.03747 16.0828 4.01325 16.0683 3.98498C16.0533 3.96003 16.04 3.93913 16.0242 3.91523C16.015 3.90173 16.0083 3.89123 15.9992 3.87772C15.9899 3.86417 15.9832 3.85363 15.9741 3.84023C15.967 3.82961 15.9622 3.82186 15.957 3.80941C15.9472 3.80079 15.9379 3.79685 15.9299 3.78878C15.9263 3.77579 15.9214 3.76696 15.9134 3.75445C15.9035 3.74095 15.8967 3.73113 15.8899 3.7213C15.8866 3.72376 15.8833 3.72622 15.88 3.72868C15.8885 3.74114 15.897 3.7536 15.9068 3.76962C15.9155 3.77916 15.923 3.78514 15.931 3.79518C15.9372 3.80764 15.9431 3.81605 15.9513 3.82732C15.9584 3.83795 15.9632 3.84572 15.9694 3.85725C15.9782 3.87101 15.9856 3.881 15.9944 3.89475C16.0032 3.90851 16.0106 3.9185 16.0195 3.93245C16.0337 3.95662 16.0464 3.97683 16.0619 4.0005C16.0783 4.0288 16.0919 4.05364 16.1072 4.08265C16.1495 4.16738 16.19 4.24794 16.231 4.33302C16.2395 4.35535 16.2475 4.37317 16.256 4.3955C16.2645 4.41784 16.2725 4.43566 16.2805 4.45348ZM11.5812 3.29013C11.5776 3.2951 11.5741 3.30007 11.5706 3.30504C11.5738 3.30599 11.5795 3.30822 11.5797 3.30771C11.5834 3.30051 11.5862 3.29294 11.5997 3.28962C11.6059 3.28623 11.6122 3.28284 11.6185 3.27944C11.6169 3.27678 11.6153 3.27412 11.6136 3.27146C11.6061 3.27666 11.5985 3.28186 11.5812 3.29013ZM15.7435 3.54685C15.7402 3.54057 15.7368 3.53428 15.7334 3.528C15.7307 3.52962 15.728 3.53124 15.7254 3.53286C15.7306 3.54043 15.7358 3.548 15.7441 3.56536C15.749 3.56888 15.754 3.57241 15.759 3.57594C15.7599 3.57277 15.7622 3.56707 15.7616 3.56681C15.7544 3.56317 15.7469 3.56027 15.7435 3.54685ZM11.3353 3.55137C11.3457 3.54716 11.3561 3.54296 11.3665 3.53875C11.3601 3.53297 11.3537 3.52718 11.3473 3.5214C11.3409 3.53061 11.3344 3.53982 11.3212 3.55593C11.3191 3.56158 11.3171 3.56724 11.3151 3.57289C11.3186 3.5739 11.3221 3.57491 11.3255 3.57592C11.3259 3.56646 11.3262 3.557 11.3353 3.55137ZM15.4849 3.30035C15.4905 3.30237 15.4962 3.3044 15.5018 3.30642C15.5028 3.30294 15.5038 3.29947 15.5049 3.296C15.4954 3.29567 15.4859 3.29533 15.4803 3.28616C15.4761 3.27575 15.4719 3.26534 15.4677 3.25494C15.4619 3.26135 15.4561 3.26777 15.4503 3.27419C15.4595 3.28063 15.4688 3.28708 15.4849 3.30035ZM11.9182 3.0351C11.9078 3.04181 11.8973 3.04852 11.8807 3.0601C11.8703 3.0668 11.8599 3.0735 11.8421 3.08625C11.8323 3.09305 11.8226 3.09985 11.8128 3.10666C11.8153 3.10992 11.8178 3.11318 11.8204 3.11644C11.8327 3.10795 11.8451 3.09946 11.865 3.08821C11.875 3.08079 11.885 3.07338 11.9025 3.06321C11.9125 3.0558 11.9225 3.04838 11.94 3.03822C11.95 3.03083 11.9599 3.02343 11.9779 3.01293C11.9981 3.00026 12.0183 2.98759 12.0453 2.96932C12.0664 2.95604 12.0875 2.94276 12.1175 2.92759C12.3699 2.79305 12.6343 2.68794 12.9144 2.6312C13.0792 2.59783 13.2478 2.57733 13.4157 2.5673C13.633 2.55431 13.8494 2.57342 14.0647 2.61335C14.319 2.66049 14.5617 2.73869 14.7955 2.84729C14.8533 2.87416 14.9116 2.90006 14.9705 2.93531C14.9925 2.94841 15.0145 2.96152 15.0421 2.98094C15.0611 2.99136 15.0801 3.00178 15.1043 3.0181C15.1172 3.02576 15.1301 3.03342 15.1455 3.04811C15.1543 3.05201 15.163 3.05591 15.1768 3.06593C15.1877 3.07226 15.1985 3.07859 15.2157 3.09205C15.2285 3.09762 15.2414 3.10318 15.2542 3.10875C15.2556 3.10579 15.257 3.10284 15.2584 3.09988C15.2455 3.09209 15.2327 3.0843 15.217 3.06903C15.2055 3.06319 15.1939 3.05735 15.18 3.04449C15.1712 3.0406 15.1624 3.03672 15.1484 3.02647C15.1348 3.01818 15.1211 3.0099 15.1041 2.99367C15.0844 2.98382 15.0647 2.97396 15.0413 2.95588C15.0169 2.94666 14.9925 2.93744 14.9671 2.91922C14.8846 2.87847 14.8029 2.83586 14.7194 2.79732C14.4165 2.65754 14.0958 2.57954 13.7654 2.55575C13.5174 2.53789 13.2666 2.54337 13.0204 2.59101C12.7159 2.64995 12.4241 2.74805 12.1492 2.8933C12.1338 2.90143 12.1232 2.91841 12.1005 2.92787C12.0771 2.93996 12.0538 2.95204 12.0224 2.96736C12.0015 2.98068 11.9806 2.99399 11.9541 3.01201C11.9442 3.01808 11.9343 3.02415 11.9182 3.0351ZM11.7683 2.93504C11.7578 2.94177 11.7473 2.94851 11.7305 2.96034C11.716 2.97111 11.7015 2.98189 11.6804 2.99796C11.6638 3.01166 11.6472 3.02536 11.6223 3.04C11.6064 3.05339 11.5904 3.06679 11.5676 3.08575C11.5371 3.11041 11.5067 3.13508 11.4762 3.15975C11.4813 3.16571 11.4865 3.17167 11.4917 3.17763C11.5219 3.14876 11.5522 3.11989 11.5909 3.09009C11.6075 3.07598 11.6242 3.06187 11.647 3.04262C11.6629 3.02959 11.6789 3.01655 11.7033 3.00259C11.7171 2.9904 11.731 2.97821 11.7531 2.96509C11.7629 2.95707 11.7726 2.94904 11.7899 2.9401C11.7977 2.93506 11.8056 2.93001 11.8197 2.92009C11.8301 2.91333 11.8406 2.90657 11.8573 2.89492C11.8677 2.88822 11.8782 2.88151 11.8954 2.86927C11.9161 2.85568 11.9367 2.8421 11.9658 2.82759C11.9817 2.81836 11.9976 2.80913 12.0206 2.79405C12.0245 2.79267 12.0286 2.79179 12.0322 2.78986C12.2975 2.64661 12.5757 2.53756 12.8698 2.46955C12.8957 2.46356 12.9196 2.44911 12.9436 2.43346C12.9392 2.43532 12.9349 2.43719 12.9203 2.43998C12.8736 2.45063 12.8256 2.45741 12.7805 2.47262C12.6015 2.53289 12.4217 2.59138 12.2458 2.65963C12.1616 2.69228 12.0854 2.74529 11.9971 2.79C11.9812 2.79924 11.9653 2.80849 11.9425 2.82336C11.9219 2.83693 11.9012 2.8505 11.8713 2.86498C11.8619 2.87301 11.8524 2.88104 11.8349 2.89C11.8251 2.89803 11.8153 2.90605 11.798 2.91499C11.7902 2.92005 11.7823 2.92511 11.7683 2.93504ZM15.3041 2.95544C15.3129 2.95896 15.3217 2.96249 15.3336 2.9739C15.3513 2.98666 15.369 2.99942 15.3918 3.01817C15.4047 3.02578 15.4176 3.0334 15.4335 3.04884C15.4533 3.0629 15.4732 3.07695 15.4961 3.09895C15.5261 3.12483 15.5561 3.15072 15.586 3.1766C15.5906 3.1709 15.5952 3.16519 15.5997 3.15948C15.5669 3.13313 15.5341 3.10679 15.496 3.07432C15.477 3.05969 15.4579 3.04507 15.4337 3.02447C15.4208 3.01684 15.4078 3.00921 15.3919 2.99369C15.3742 2.98093 15.3565 2.96817 15.3339 2.94969C15.3251 2.94615 15.3162 2.94261 15.3044 2.93127C15.2909 2.92264 15.2773 2.914 15.2588 2.89965C15.25 2.89613 15.2412 2.89261 15.2315 2.88022C15.218 2.87266 15.2045 2.8651 15.1852 2.85091C15.1676 2.8428 15.15 2.83469 15.1293 2.81864C15.1082 2.80666 15.0872 2.79468 15.0601 2.77587C15.025 2.75729 14.9907 2.73717 14.9547 2.72041C14.8424 2.66801 14.7322 2.60933 14.616 2.56728C14.4884 2.52111 14.357 2.48063 14.2238 2.45586C14.0363 2.42098 13.8463 2.397 13.6563 2.37991C13.5547 2.37077 13.4507 2.38278 13.3482 2.39082C13.2346 2.39974 13.1215 2.41485 13.0081 2.42768C12.9894 2.42981 12.9709 2.43404 12.9522 2.4373C12.9606 2.44992 12.9667 2.45292 12.9724 2.45214C13.0889 2.43587 13.205 2.40823 13.3218 2.40487C13.5562 2.39812 13.7906 2.39816 14.0242 2.43806C14.2731 2.48057 14.514 2.54547 14.7447 2.64738C14.8491 2.69349 14.952 2.74306 15.0588 2.79917C15.0806 2.81182 15.1023 2.82446 15.1295 2.84338C15.1465 2.85095 15.1635 2.85851 15.1835 2.87383C15.1971 2.88245 15.2106 2.89107 15.2291 2.9054C15.2379 2.90894 15.2467 2.91248 15.2585 2.92382C15.2721 2.93246 15.2856 2.94109 15.3041 2.95544ZM11.7838 3.01498C11.7702 3.02718 11.7566 3.03938 11.7338 3.05248C11.7202 3.06468 11.7066 3.07688 11.6838 3.08998C11.6702 3.10218 11.6566 3.11438 11.634 3.12752C11.6099 3.14933 11.5857 3.17114 11.5548 3.19868C11.5009 3.22176 11.4566 3.25393 11.4312 3.3288C11.4864 3.27899 11.5282 3.24123 11.5779 3.20039C11.6031 3.17858 11.6283 3.15678 11.6593 3.12996C11.6732 3.11993 11.6871 3.1099 11.7076 3.09442C11.7229 3.08294 11.7382 3.07146 11.7596 3.05475C11.7741 3.0441 11.7887 3.03345 11.8089 3.01809C11.8188 3.012 11.8287 3.00591 11.8452 2.99427C11.868 2.97948 11.8907 2.96469 11.9205 2.94417C11.989 2.9044 12.0575 2.86463 12.1332 2.81899C12.1824 2.79685 12.2321 2.77543 12.281 2.75245C12.6244 2.59104 12.9877 2.50511 13.3643 2.47926C13.5905 2.46374 13.818 2.47619 14.0412 2.51679C14.3583 2.57447 14.6623 2.67524 14.9547 2.83112C15.0237 2.87062 15.0926 2.91011 15.1671 2.95595C15.1902 2.9705 15.2134 2.98505 15.2413 3.00516C15.2515 3.01093 15.2617 3.01669 15.2774 3.02888C15.293 3.03997 15.3085 3.05106 15.3294 3.06822C15.3443 3.0787 15.3592 3.08917 15.3791 3.10543C15.3933 3.11515 15.4074 3.12487 15.4274 3.1414C15.4517 3.15966 15.476 3.17793 15.5066 3.20086C15.4904 3.14703 15.4904 3.14703 15.4315 3.11746C15.4151 3.108 15.3988 3.09854 15.3815 3.07995C15.3651 3.07049 15.3488 3.06103 15.3315 3.04246C15.3151 3.033 15.2988 3.02354 15.2815 3.00486C15.2693 2.9996 15.2571 2.99434 15.2439 2.97938C15.2193 2.96594 15.1946 2.95251 15.169 2.93021C15.0985 2.8915 15.028 2.85279 14.9537 2.80579C14.8313 2.75014 14.7107 2.69002 14.5859 2.64039C14.502 2.60705 14.4125 2.58779 14.3251 2.56365C14.2398 2.54008 14.1545 2.51578 14.0682 2.49658C14.0036 2.48221 13.9376 2.47127 13.8717 2.46639C13.8018 2.46122 13.7312 2.46492 13.661 2.46491C13.5343 2.46489 13.4072 2.45835 13.2811 2.46686C13.1496 2.47572 13.0178 2.49222 12.8888 2.5184C12.7856 2.53934 12.6873 2.58336 12.5852 2.61081C12.419 2.65547 12.2646 2.72524 12.1083 2.81498C12.0625 2.83802 12.0155 2.85914 11.9712 2.88486C11.9469 2.89891 11.9273 2.92075 11.8957 2.93998C11.874 2.95635 11.8522 2.97271 11.8213 2.98998C11.8119 2.99801 11.8024 3.00604 11.7838 3.01498ZM11.1575 4.0445C11.2021 3.99142 11.2498 3.94061 11.2908 3.88488C11.4515 3.66644 11.6471 3.48233 11.8616 3.31979C12.0588 3.17033 12.2751 3.05088 12.5058 2.95865C12.7699 2.8531 13.0441 2.78526 13.3266 2.7677C13.6196 2.74949 13.9128 2.76474 14.1998 2.83984C14.4749 2.91183 14.7398 3.00971 14.978 3.16639C15.1248 3.2629 15.2681 3.36708 15.4006 3.48201C15.5209 3.58638 15.6264 3.70834 15.735 3.82566C15.8014 3.89731 15.8614 3.97485 15.929 4.05531C15.9332 4.05696 15.9374 4.0586 15.9416 4.06025C15.9385 4.0532 15.9355 4.04616 15.9315 4.03016C15.8931 3.9638 15.8589 3.89449 15.8154 3.83164C15.6716 3.62376 15.5027 3.43985 15.3051 3.27987C15.0584 3.0801 14.7877 2.9263 14.4901 2.81922C14.17 2.70403 13.8394 2.64721 13.4989 2.65299C13.4374 2.65403 13.3757 2.65811 13.3147 2.66562C13.1838 2.68173 13.0511 2.69159 12.923 2.72093C12.6646 2.78017 12.4175 2.87168 12.1838 3.00089C11.9804 3.1134 11.7936 3.24753 11.6249 3.40556C11.529 3.49534 11.4396 3.59373 11.3588 3.69727C11.2761 3.80334 11.185 3.90647 11.1359 4.04156C11.1354 4.0483 11.1349 4.05505 11.1344 4.06179C11.1399 4.05786 11.1454 4.05392 11.1575 4.0445ZM15.8001 3.25245C15.7753 3.22904 15.7506 3.20564 15.7258 3.18223C15.7254 3.18325 15.725 3.18426 15.7246 3.18528C15.7821 3.24361 15.8396 3.30194 15.8971 3.36027C15.899 3.35872 15.9009 3.35717 15.9028 3.35561C15.8706 3.3233 15.8385 3.29099 15.8001 3.25245ZM11.2882 3.23977C11.2502 3.27968 11.2122 3.31959 11.1742 3.3595C11.1757 3.36016 11.1771 3.36082 11.1785 3.36149C11.2361 3.30313 11.2937 3.24477 11.3587 3.17896C11.3324 3.20116 11.3134 3.21716 11.2882 3.23977ZM15.617 3.30511C15.6219 3.30141 15.6312 3.29484 15.631 3.29441C15.6034 3.25105 15.5729 3.21104 15.5063 3.20167C15.5457 3.23925 15.5773 3.26937 15.617 3.30511ZM11.7498 3.17688C11.7536 3.17098 11.7575 3.16507 11.7614 3.15917C11.759 3.1564 11.7567 3.15363 11.7543 3.15085C11.741 3.16212 11.7278 3.17338 11.7146 3.18464C11.7162 3.1859 11.7178 3.18717 11.7222 3.19065C11.7273 3.18684 11.7332 3.18246 11.7498 3.17688ZM15.8432 3.67934C15.8508 3.69145 15.8584 3.70356 15.866 3.71567C15.8696 3.71336 15.8732 3.71106 15.8768 3.70875C15.8683 3.69628 15.8598 3.6838 15.8432 3.67934ZM11.2194 3.69863C11.2235 3.69153 11.2276 3.68443 11.2317 3.67732C11.226 3.67658 11.2204 3.67584 11.2147 3.6751C11.2156 3.68667 11.2166 3.69824 11.2194 3.69863ZM15.2901 3.12711C15.283 3.12301 15.2759 3.11891 15.2688 3.11481C15.268 3.12049 15.2673 3.12616 15.2666 3.13184C15.2782 3.13088 15.2897 3.12993 15.2901 3.12711ZM15.3128 3.16029C15.3253 3.1686 15.3379 3.17691 15.3504 3.18523C15.3527 3.18157 15.3549 3.17792 15.3571 3.17427C15.3449 3.16681 15.3327 3.15935 15.3128 3.16029ZM15.4194 3.22599C15.4064 3.21817 15.3935 3.21036 15.3805 3.20254C15.3786 3.20628 15.3767 3.21002 15.3748 3.21376C15.387 3.22052 15.3992 3.22729 15.4194 3.22599ZM15.8245 3.64576C15.8202 3.63563 15.8159 3.62549 15.8117 3.61536C15.8086 3.61644 15.8055 3.61752 15.8025 3.6186C15.8066 3.62984 15.8108 3.64107 15.8245 3.64576ZM11.2606 3.65225C11.2647 3.64102 11.2688 3.62978 11.2729 3.61855C11.2698 3.61748 11.2666 3.61641 11.2635 3.61534C11.2594 3.62553 11.2552 3.63572 11.2606 3.65225ZM11.7976 3.13949C11.7978 3.13393 11.798 3.12837 11.7982 3.12281C11.7894 3.12838 11.7806 3.13394 11.7717 3.13951C11.7766 3.14004 11.7814 3.14057 11.7976 3.13949ZM11.6936 3.21944C11.6818 3.21873 11.6701 3.21803 11.6584 3.21732C11.6587 3.22186 11.659 3.2264 11.6594 3.23094C11.6679 3.22963 11.6765 3.22831 11.6936 3.21944ZM15.6258 3.09113C15.6209 3.09264 15.616 3.09415 15.611 3.09566C15.6123 3.0982 15.6138 3.103 15.6148 3.10291C15.6206 3.10237 15.6263 3.10064 15.6258 3.09113ZM11.4662 3.09871C11.4604 3.09668 11.4546 3.09451 11.4487 3.09301C11.4484 3.09293 11.4466 3.09858 11.4455 3.10156C11.4498 3.10272 11.4542 3.10389 11.4662 3.09871Z" fill="black"/>
<path d="M12.485 8.34988C12.577 8.37936 12.6661 8.40504 12.7546 8.43268C12.8747 8.47017 12.9962 8.49672 13.1224 8.50455C13.1836 8.50835 13.2435 8.53648 13.3044 8.53774C13.4259 8.54025 13.5476 8.53124 13.6693 8.52813C13.7417 8.52628 13.8146 8.53067 13.8866 8.52473C13.9494 8.51955 14.0119 8.5063 14.0736 8.49223C14.1737 8.46939 14.2738 8.44568 14.3725 8.41728C14.4648 8.3907 14.5569 8.36175 14.6461 8.3262C14.7461 8.28636 14.8436 8.24005 14.9403 8.19275C15.0782 8.12532 15.209 8.0463 15.3292 7.94974C15.4007 7.8923 15.4791 7.84346 15.5509 7.7863C15.584 7.75994 15.6072 7.72158 15.6373 7.69097C15.7225 7.60413 15.8125 7.52163 15.8938 7.4313C15.9496 7.36933 15.9965 7.29877 16.0429 7.22908C16.092 7.15534 16.1357 7.07803 16.182 7.00244C16.1848 6.99786 16.1925 6.99511 16.1933 6.99063C16.2101 6.90509 16.2634 6.8667 16.3487 6.86752C16.4207 6.86821 16.4926 6.86766 16.5648 6.86766C16.2041 7.78362 15.2391 8.60307 14.1257 8.78974C13.3747 8.91567 12.6596 8.81056 11.9835 8.45311C11.3093 8.09661 10.8222 7.56663 10.5008 6.87062C10.5819 6.87062 10.6568 6.87671 10.7303 6.8692C10.841 6.85789 10.8587 6.94656 10.9018 7.01204C10.9741 7.12197 11.0491 7.23014 11.1239 7.33837C11.1655 7.39846 11.2056 7.46009 11.2528 7.51557C11.2884 7.55747 11.337 7.58809 11.375 7.62829C11.5119 7.77318 11.659 7.90522 11.8307 8.00827C11.9608 8.08629 12.0872 8.1708 12.2205 8.24268C12.3025 8.28691 12.3944 8.31282 12.485 8.34988Z" fill="black"/>
<path d="M13.99 6.89331C14.119 6.89608 14.2442 6.89682 14.3694 6.89582C14.5057 6.89473 14.6421 6.89108 14.7784 6.89027C14.9473 6.88927 15.1163 6.89003 15.2855 6.89003C14.5876 7.85838 12.837 8.17582 11.7813 6.89014C11.9333 6.89014 12.0797 6.89015 12.2262 6.89014C12.3505 6.89013 12.4748 6.88946 12.5991 6.89026C12.7343 6.89113 12.8695 6.8929 13.0048 6.89517C13.1059 6.89687 13.207 6.90093 13.3082 6.90223C13.4056 6.90348 13.5031 6.90287 13.6006 6.90244C13.7218 6.90191 13.843 6.90088 13.9642 6.89942C13.9715 6.89933 13.9788 6.89361 13.99 6.89331Z" fill="black"/>
<path d="M15.5345 7.24428C15.4367 7.34668 15.348 7.45302 15.2447 7.54235C15.0673 7.69573 14.8704 7.82257 14.6567 7.92104C14.448 8.01715 14.2302 8.08454 14.0045 8.12814C13.7862 8.17029 13.5653 8.17557 13.3456 8.16253C13.081 8.14682 12.8236 8.08524 12.5759 7.98857C12.3576 7.90341 12.155 7.78903 11.9657 7.65154C11.9047 7.60721 11.848 7.55651 11.7918 7.50606C11.6195 7.35158 11.4683 7.17873 11.3437 6.98327C11.3232 6.95106 11.3042 6.91791 11.2874 6.89005C11.4298 6.89005 11.5752 6.88714 11.7204 6.89271C11.7466 6.89372 11.7761 6.92571 11.7963 6.94989C11.9684 7.15572 12.168 7.32845 12.4001 7.46393C12.6117 7.58744 12.8394 7.67029 13.0767 7.72412C13.2929 7.77317 13.5152 7.78061 13.7346 7.76228C14.0419 7.7366 14.3348 7.64833 14.6077 7.50196C14.8659 7.36343 15.0922 7.18333 15.2727 6.95191C15.3329 6.87469 15.4081 6.88893 15.4822 6.88573C15.5843 6.88132 15.6868 6.88463 15.805 6.88463C15.713 7.00691 15.625 7.12373 15.5345 7.24428Z" fill="black"/>
<path d="M15.572 7.71828C15.3948 7.88059 15.2048 8.01712 14.9982 8.13157C14.8114 8.23499 14.6181 8.32276 14.4122 8.37777C14.2608 8.41822 14.1066 8.45032 13.9519 8.47586C13.8252 8.49679 13.6959 8.51412 13.5679 8.51254C13.3296 8.5096 13.0933 8.48524 12.8589 8.43084C12.6224 8.37598 12.3966 8.29605 12.1815 8.18822C11.9701 8.08228 11.7729 7.95243 11.593 7.79654C11.3607 7.59531 11.1587 7.3689 10.9949 7.10895C10.9491 7.03631 10.9081 6.96068 10.8648 6.88628C10.9408 6.84931 10.9447 6.92207 10.9886 6.96466C10.9732 6.92629 10.9647 6.90512 10.9562 6.88396C10.9602 6.87894 10.9641 6.87392 10.9681 6.86891C10.9892 6.88443 11.0181 6.89541 11.0303 6.91618C11.1279 7.08268 11.2403 7.23752 11.3669 7.38358C11.5885 7.63911 11.8486 7.84468 12.1434 8.00841C12.4323 8.16889 12.7404 8.27064 13.0656 8.32962C13.2953 8.37128 13.5265 8.37703 13.7559 8.36162C14.1037 8.33827 14.4375 8.24718 14.755 8.09852C14.9736 7.99617 15.1734 7.86723 15.3625 7.71742C15.6254 7.50906 15.8321 7.25346 16.0142 6.97528C16.0262 6.95689 16.0306 6.93263 16.0448 6.91677C16.0621 6.89755 16.0861 6.88435 16.1072 6.86855C16.1113 6.87359 16.1155 6.87864 16.1197 6.88368C16.111 6.90479 16.1023 6.9259 16.0866 6.96393C16.1312 6.92248 16.1346 6.84879 16.208 6.88483C16.0482 7.20051 15.8328 7.47376 15.572 7.71828ZM14.1738 8.37751C14.2922 8.34487 14.4106 8.31224 14.5291 8.2796C14.5281 8.27344 14.5271 8.26727 14.5261 8.2611C13.8672 8.48677 13.2082 8.48667 12.5482 8.26821C12.5992 8.29255 12.6505 8.3126 12.7033 8.32662C12.9251 8.38543 13.1485 8.43764 13.3793 8.43903C13.547 8.44004 13.715 8.43656 13.8822 8.42564C13.9764 8.4195 14.0694 8.39423 14.1738 8.37751ZM12.1864 8.11549C12.2401 8.14239 12.2938 8.16929 12.3476 8.19619C12.3497 8.19155 12.3518 8.18691 12.354 8.18228C12.2656 8.13852 12.1772 8.09477 12.0888 8.05101C12.0868 8.05506 12.0848 8.05912 12.0828 8.06317C12.1141 8.08032 12.1455 8.09747 12.1864 8.11549ZM14.9628 8.07808C14.9721 8.07223 14.9814 8.06638 14.9908 8.06054C14.9889 8.05727 14.987 8.05401 14.9851 8.05074C14.8974 8.09471 14.8097 8.13868 14.722 8.18266C14.7241 8.18708 14.7261 8.1915 14.7282 8.19592C14.8041 8.15879 14.88 8.12166 14.9628 8.07808Z" fill="black"/>
<path d="M16.6815 5.07056C16.6815 5.05478 16.6815 5.04444 16.6815 5.0341C16.7452 5.19358 16.7715 5.35681 16.734 5.52676C16.6737 5.38148 16.7087 5.2251 16.6815 5.07056Z" fill="black"/>
<path d="M10.3615 5.50396C10.3518 5.51404 10.3459 5.52043 10.3399 5.52682C10.3331 5.51479 10.3203 5.50285 10.3202 5.49073C10.3179 5.33497 10.3285 5.18085 10.397 5.03473C10.3864 5.18991 10.3759 5.34509 10.3615 5.50396Z" fill="black"/>
<path d="M15.9242 4.04974C15.8614 3.97485 15.8014 3.89731 15.735 3.82566C15.6264 3.70833 15.5209 3.58638 15.4006 3.48201C15.2681 3.36708 15.1248 3.2629 14.978 3.16639C14.7398 3.0097 14.4749 2.91182 14.1998 2.83984C13.9128 2.76473 13.6196 2.74949 13.3266 2.7677C13.0441 2.78526 12.7699 2.8531 12.5058 2.95865C12.2751 3.05088 12.0588 3.17033 11.8616 3.31978C11.6471 3.48233 11.4515 3.66643 11.2908 3.88488C11.2498 3.9406 11.2021 3.99142 11.1524 4.04443C11.1458 4.04262 11.1444 4.04088 11.1429 4.03914C11.185 3.90647 11.2761 3.80334 11.3588 3.69727C11.4396 3.59373 11.529 3.49533 11.6249 3.40556C11.7936 3.24753 11.9804 3.1134 12.1838 3.00089C12.4175 2.87168 12.6645 2.78017 12.923 2.72093C13.0511 2.69158 13.1838 2.68172 13.3147 2.66562C13.3757 2.65811 13.4374 2.65403 13.4989 2.65299C13.8394 2.64721 14.17 2.70403 14.4901 2.81922C14.7876 2.9263 15.0584 3.0801 15.3051 3.27987C15.5027 3.43985 15.6716 3.62376 15.8154 3.83164C15.8589 3.89449 15.8931 3.9638 15.9298 4.0372C15.9268 4.04607 15.9255 4.04791 15.9242 4.04974Z" fill="white"/>
<path d="M14.9491 2.8246C14.6623 2.67523 14.3583 2.57446 14.0412 2.51678C13.818 2.47618 13.5905 2.46373 13.3643 2.47925C12.9877 2.5051 12.6244 2.59103 12.281 2.75244C12.2321 2.77543 12.1824 2.79684 12.1277 2.81913C12.1209 2.81755 12.1194 2.81581 12.118 2.81407C12.2646 2.72523 12.419 2.65546 12.5852 2.6108C12.6873 2.58335 12.7856 2.53933 12.8888 2.5184C13.0178 2.49221 13.1496 2.47572 13.2811 2.46685C13.4072 2.45834 13.5343 2.46488 13.661 2.4649C13.7312 2.46491 13.8018 2.46121 13.8717 2.46639C13.9376 2.47126 14.0036 2.4822 14.0682 2.49657C14.1545 2.51578 14.2398 2.54007 14.3251 2.56364C14.4125 2.58778 14.502 2.60704 14.5859 2.64038C14.7107 2.69001 14.8313 2.75013 14.9534 2.81247C14.9517 2.82098 14.9504 2.82279 14.9491 2.8246Z" fill="white"/>
<path d="M14.9697 2.9264C14.9116 2.90005 14.8533 2.87415 14.7955 2.84728C14.5617 2.73868 14.319 2.66048 14.0647 2.61334C13.8494 2.57341 13.633 2.5543 13.4157 2.56729C13.2478 2.57732 13.0792 2.59782 12.9144 2.63119C12.6343 2.68793 12.3699 2.79304 12.1135 2.92899C12.1094 2.9304 12.1103 2.93126 12.1103 2.93126C12.1232 2.9184 12.1339 2.90142 12.1492 2.89329C12.4241 2.74804 12.7159 2.64994 13.0205 2.591C13.2666 2.54336 13.5174 2.53788 13.7654 2.55574C14.0958 2.57953 14.4166 2.65753 14.7194 2.79731C14.803 2.83585 14.8846 2.87847 14.968 2.92329C14.969 2.92737 14.9697 2.9264 14.9697 2.9264Z" fill="white"/>
<path d="M15.0556 2.79106C14.952 2.74306 14.8491 2.69349 14.7447 2.64738C14.514 2.54546 14.2731 2.48056 14.0242 2.43805C13.7906 2.39816 13.5562 2.39812 13.3218 2.40486C13.205 2.40822 13.0889 2.43586 12.9724 2.45213C12.9667 2.45292 12.9606 2.44991 12.9522 2.4373C12.9709 2.43404 12.9894 2.4298 13.0081 2.42768C13.1214 2.41485 13.2346 2.39973 13.3482 2.39081C13.4507 2.38277 13.5547 2.37076 13.6562 2.3799C13.8463 2.39699 14.0363 2.42098 14.2238 2.45585C14.357 2.48062 14.4884 2.5211 14.616 2.56728C14.7322 2.60932 14.8424 2.668 14.9547 2.7204C14.9907 2.73717 15.025 2.75728 15.0604 2.78126C15.059 2.78812 15.0573 2.78959 15.0556 2.79106Z" fill="white"/>
<path d="M12.0055 2.78907C12.0854 2.74528 12.1616 2.69228 12.2458 2.65963C12.4217 2.59137 12.6015 2.53288 12.7805 2.47261C12.8256 2.4574 12.8736 2.45063 12.929 2.44019C12.9399 2.4398 12.9422 2.43919 12.9445 2.43858C12.9197 2.4491 12.8957 2.46355 12.8698 2.46954C12.5757 2.53755 12.2975 2.6466 12.0322 2.78985C12.0286 2.79178 12.0245 2.79267 12.0152 2.79417C12.0084 2.79256 12.0069 2.79081 12.0055 2.78907Z" fill="white"/>
<path d="M15.8032 3.25555C15.8385 3.29098 15.8706 3.32329 15.9028 3.3556C15.9009 3.35715 15.899 3.35871 15.8971 3.36026C15.8396 3.30193 15.7821 3.2436 15.7245 3.18526C15.725 3.18425 15.7254 3.18323 15.7258 3.18222C15.7506 3.20562 15.7753 3.22903 15.8032 3.25555Z" fill="white"/>
<path d="M11.2913 3.23647C11.3134 3.21716 11.3324 3.20116 11.3587 3.17896C11.2938 3.24477 11.2362 3.30313 11.1786 3.36149C11.1771 3.36082 11.1757 3.36016 11.1743 3.3595C11.2122 3.31959 11.2502 3.27968 11.2913 3.23647Z" fill="white"/>
<path d="M15.1616 2.9496C15.0926 2.91011 15.0237 2.87061 14.9519 2.82786C14.9504 2.82279 14.9517 2.82098 14.9553 2.81662C15.028 2.85278 15.0985 2.89149 15.1673 2.93718C15.1642 2.94598 15.1629 2.94779 15.1616 2.9496Z" fill="white"/>
<path d="M12.1242 2.82206C12.0575 2.86462 11.989 2.90439 11.9151 2.94423C11.9083 2.94255 11.9069 2.9408 11.9055 2.93906C11.9273 2.92073 11.947 2.8989 11.9712 2.88485C12.0155 2.85913 12.0625 2.83801 12.1132 2.81451C12.1194 2.8158 12.1209 2.81754 12.1242 2.82206Z" fill="white"/>
<path d="M16.1142 4.06827C16.1546 4.14991 16.1949 4.23156 16.2355 4.31872C16.234 4.32565 16.2323 4.32708 16.2305 4.3285C16.19 4.24794 16.1495 4.16738 16.1095 4.08017C16.1114 4.07178 16.1128 4.07002 16.1142 4.06827Z" fill="white"/>
<path d="M10.8345 4.32006C10.8746 4.23801 10.9147 4.15596 10.9602 4.07364C10.9671 4.07506 10.9685 4.07675 10.97 4.07844C10.9311 4.1605 10.8923 4.24256 10.8466 4.32435C10.8381 4.32274 10.8363 4.3214 10.8345 4.32006Z" fill="white"/>
<path d="M11.57 3.20345C11.5282 3.24122 11.4864 3.27898 11.4312 3.32879C11.4566 3.25392 11.5009 3.22175 11.5602 3.19852C11.5671 3.20006 11.5685 3.20176 11.57 3.20345Z" fill="white"/>
<path d="M15.613 3.30229C15.5774 3.26936 15.5458 3.23925 15.5063 3.20166C15.573 3.21104 15.6034 3.25104 15.631 3.29441C15.6312 3.29484 15.6219 3.3014 15.613 3.30229Z" fill="white"/>
<path d="M15.5013 3.08043C15.5341 3.10678 15.567 3.13312 15.5998 3.15947C15.5952 3.16518 15.5906 3.17088 15.5861 3.17659C15.5561 3.15071 15.5261 3.12482 15.4968 3.09241C15.4987 3.08407 15.5 3.08225 15.5013 3.08043Z" fill="white"/>
<path d="M11.5824 3.09101C11.5522 3.11988 11.5219 3.14875 11.4917 3.17762C11.4865 3.17166 11.4813 3.1657 11.4762 3.15975C11.5067 3.13508 11.5372 3.11041 11.5729 3.08575C11.5796 3.08752 11.581 3.08926 11.5824 3.09101Z" fill="white"/>
<path d="M11.5636 3.19565C11.5857 3.17113 11.6099 3.14932 11.6411 3.12924C11.6499 3.1323 11.6517 3.13363 11.6535 3.13496C11.6283 3.15677 11.6031 3.17857 11.5739 3.20191C11.5685 3.20175 11.5671 3.20006 11.5636 3.19565Z" fill="white"/>
<path d="M15.4325 3.12657C15.4904 3.14701 15.4904 3.14701 15.5066 3.20085C15.476 3.17791 15.4517 3.15965 15.4273 3.1361C15.429 3.1294 15.4307 3.12799 15.4325 3.12657Z" fill="white"/>
<path d="M15.2366 2.9996C15.2134 2.98504 15.1902 2.97049 15.1643 2.95277C15.1629 2.94779 15.1642 2.94598 15.1677 2.94162C15.1946 2.9525 15.2193 2.96594 15.2422 2.98673C15.2392 2.99593 15.2379 2.99776 15.2366 2.9996Z" fill="white"/>
<path d="M11.8305 2.98906C11.8522 2.9727 11.874 2.95633 11.9006 2.93951C11.9069 2.94081 11.9083 2.94255 11.9116 2.94709C11.8907 2.96468 11.868 2.97947 11.84 2.99422C11.8334 2.99248 11.832 2.99077 11.8305 2.98906Z" fill="white"/>
<path d="M11.8805 2.86406C11.9012 2.85049 11.9219 2.83692 11.9479 2.82332C11.9546 2.82502 11.956 2.82677 11.9574 2.82851C11.9368 2.84209 11.9161 2.85567 11.8901 2.86922C11.8834 2.86748 11.882 2.86577 11.8805 2.86406Z" fill="white"/>
<path d="M15.4388 3.03044C15.4579 3.04507 15.477 3.05969 15.4987 3.07737C15.5 3.08226 15.4987 3.08408 15.4952 3.08845C15.4732 3.07695 15.4533 3.06289 15.4342 3.04237C15.4362 3.03408 15.4375 3.03226 15.4388 3.03044Z" fill="white"/>
<path d="M10.9636 4.07066C10.976 4.04073 10.9905 4.0135 11.0102 3.98607C11.0171 3.98756 11.0185 3.98925 11.02 3.99094C11.0061 4.01892 10.9921 4.04691 10.9741 4.07667C10.9685 4.07675 10.9671 4.07506 10.9636 4.07066Z" fill="white"/>
<path d="M15.1241 2.8371C15.1023 2.82445 15.0806 2.81181 15.0572 2.79511C15.0573 2.78959 15.059 2.78812 15.0634 2.78467C15.0872 2.79467 15.1082 2.80665 15.1287 2.82515C15.1267 2.83348 15.1254 2.83529 15.1241 2.8371Z" fill="white"/>
<path d="M11.5763 3.08297C11.5904 3.06678 11.6064 3.05338 11.6289 3.04181C11.6372 3.045 11.639 3.04638 11.6408 3.04776C11.6242 3.06186 11.6075 3.07597 11.5867 3.09055C11.581 3.08926 11.5796 3.08752 11.5763 3.08297Z" fill="white"/>
<path d="M15.1806 2.86605C15.1636 2.85849 15.1465 2.85093 15.1268 2.84024C15.1254 2.83529 15.1267 2.83348 15.1302 2.82912C15.15 2.83468 15.1676 2.84279 15.1854 2.85624C15.1839 2.86308 15.1822 2.86457 15.1806 2.86605Z" fill="white"/>
<path d="M15.2824 3.01408C15.2988 3.02354 15.3151 3.033 15.3298 3.04957C15.3267 3.05851 15.3254 3.06032 15.3241 3.06214C15.3085 3.05105 15.293 3.03997 15.2774 3.02372C15.2791 3.01707 15.2808 3.01558 15.2824 3.01408Z" fill="white"/>
<path d="M11.693 3.08907C11.7066 3.07687 11.7202 3.06467 11.741 3.05423C11.7499 3.05732 11.7517 3.05865 11.7535 3.05998C11.7382 3.07146 11.7229 3.08294 11.7024 3.09435C11.6959 3.09255 11.6944 3.09081 11.693 3.08907Z" fill="white"/>
<path d="M15.3302 3.05412C15.3488 3.06102 15.3651 3.07048 15.3798 3.08706C15.3767 3.096 15.3754 3.09782 15.3741 3.09964C15.3592 3.08916 15.3443 3.07869 15.3267 3.06517C15.3254 3.06031 15.3267 3.0585 15.3302 3.05412Z" fill="white"/>
<path d="M16.0699 3.98901C16.0829 4.01323 16.0958 4.03745 16.1115 4.06497C16.1128 4.07001 16.1114 4.07177 16.1078 4.076C16.0919 4.05363 16.0783 4.02879 16.0647 3.99862C16.0664 3.99186 16.0682 3.99044 16.0699 3.98901Z" fill="white"/>
<path d="M11.8032 3.0228C11.7887 3.03345 11.7741 3.0441 11.7565 3.05736C11.7517 3.05865 11.7499 3.05732 11.7455 3.05378C11.7566 3.03937 11.7702 3.02717 11.7909 3.01683C11.7997 3.02006 11.8015 3.02143 11.8032 3.0228Z" fill="white"/>
<path d="M15.3388 2.9554C15.3565 2.96816 15.3742 2.98092 15.3912 3.00019C15.3893 3.00853 15.388 3.01035 15.3867 3.01218C15.369 2.99942 15.3513 2.98665 15.3343 2.96744C15.3363 2.95912 15.3375 2.95726 15.3388 2.9554Z" fill="white"/>
<path d="M11.6992 3.09708C11.6872 3.10989 11.6733 3.11993 11.6564 3.13247C11.6517 3.13365 11.6499 3.13232 11.6456 3.12878C11.6566 3.11438 11.6702 3.10218 11.6884 3.08952C11.6944 3.09081 11.6959 3.09255 11.6992 3.09708Z" fill="white"/>
<path d="M11.6949 3.00351C11.6789 3.01654 11.6629 3.02958 11.6439 3.04518C11.639 3.04638 11.6372 3.045 11.633 3.04134C11.6472 3.02535 11.6638 3.01165 11.6855 2.99811C11.6921 3.00001 11.6935 3.00176 11.6949 3.00351Z" fill="white"/>
<path d="M15.3803 3.09163C15.3988 3.09853 15.4151 3.10799 15.432 3.12202C15.4307 3.12799 15.429 3.12941 15.4244 3.1327C15.4075 3.12486 15.3933 3.11514 15.3766 3.10254C15.3754 3.09782 15.3767 3.09601 15.3803 3.09163Z" fill="white"/>
<path d="M12.1089 2.92994C12.0875 2.94276 12.0664 2.95604 12.04 2.96932C12.0333 2.96759 12.0319 2.96586 12.0305 2.96413C12.0538 2.95204 12.0771 2.93995 12.1054 2.92957C12.1103 2.93126 12.1094 2.9304 12.1089 2.92994Z" fill="white"/>
<path d="M11.7449 2.96601C11.731 2.9782 11.7172 2.99039 11.6991 3.00304C11.6935 3.00176 11.6921 3.00001 11.6888 2.99546C11.7015 2.98188 11.716 2.9711 11.7355 2.9606C11.742 2.96259 11.7435 2.9643 11.7449 2.96601Z" fill="white"/>
<path d="M12.0366 2.97212C12.0183 2.98759 11.9981 3.00026 11.9714 3.01217C11.9632 3.01004 11.9615 3.00868 11.9597 3.00731C11.9806 2.99399 12.0015 2.98067 12.0264 2.96574C12.0319 2.96586 12.0333 2.9676 12.0366 2.97212Z" fill="white"/>
<path d="M16.0267 3.91821C16.04 3.93912 16.0533 3.96002 16.0683 3.98497C16.0682 3.99043 16.0664 3.99186 16.0619 3.99515C16.0464 3.97681 16.0338 3.95661 16.0219 3.92999C16.024 3.92178 16.0253 3.92 16.0267 3.91821Z" fill="white"/>
<path d="M11.9513 2.82051C11.9653 2.80848 11.9812 2.79924 12.0013 2.78954C12.0069 2.79082 12.0083 2.79256 12.0116 2.7971C11.9976 2.80913 11.9817 2.81836 11.9616 2.82805C11.956 2.82677 11.9546 2.82503 11.9513 2.82051Z" fill="white"/>
<path d="M15.0366 2.97461C15.0145 2.96151 14.9925 2.9484 14.9701 2.93085C14.9697 2.9264 14.969 2.92737 14.9685 2.92779C14.9925 2.93744 15.0169 2.94665 15.0409 2.96252C15.0392 2.97099 15.0379 2.9728 15.0366 2.97461Z" fill="white"/>
<path d="M11.0136 3.98316C11.0219 3.96146 11.0323 3.94247 11.0478 3.92346C11.0545 3.92511 11.056 3.92678 11.0575 3.92844C11.0476 3.94817 11.0378 3.96789 11.024 3.98928C11.0185 3.98925 11.0171 3.98756 11.0136 3.98316Z" fill="white"/>
<path d="M16.2828 4.45102C16.2725 4.43566 16.2645 4.41783 16.2583 4.39304C16.2615 4.38434 16.2629 4.38261 16.2644 4.38087C16.2708 4.39941 16.2772 4.41795 16.2865 4.43993C16.2879 4.44511 16.2865 4.44684 16.2828 4.45102Z" fill="white"/>
<path d="M15.2242 2.89969C15.2106 2.89107 15.1971 2.88245 15.182 2.86995C15.1822 2.86458 15.1839 2.86309 15.1883 2.85957C15.2045 2.8651 15.218 2.87266 15.2297 2.88716C15.2267 2.89596 15.2254 2.89782 15.2242 2.89969Z" fill="white"/>
<path d="M15.0992 3.01219C15.0801 3.00178 15.0611 2.99136 15.0393 2.97778C15.0379 2.97281 15.0392 2.971 15.0428 2.96664C15.0647 2.97396 15.0844 2.98382 15.1036 3.0002C15.1018 3.00854 15.1005 3.01037 15.0992 3.01219Z" fill="white"/>
<path d="M10.8424 4.3263C10.8394 4.3481 10.8338 4.3677 10.8215 4.38694C10.813 4.38525 10.8112 4.38391 10.8094 4.38258C10.8155 4.3637 10.8216 4.34482 10.8311 4.32301C10.8363 4.32141 10.8381 4.32275 10.8424 4.3263Z" fill="white"/>
<path d="M16.2578 4.38852C16.2475 4.37316 16.2395 4.35534 16.231 4.33301C16.2322 4.32707 16.234 4.32564 16.2385 4.32231C16.2471 4.33834 16.253 4.35628 16.2616 4.37754C16.2629 4.3826 16.2615 4.38433 16.2578 4.38852Z" fill="white"/>
<path d="M15.3928 3.00414C15.4079 3.0092 15.4208 3.01683 15.4363 3.02745C15.4375 3.03226 15.4362 3.03408 15.4327 3.03845C15.4176 3.03339 15.4047 3.02578 15.3892 3.01517C15.388 3.01035 15.3893 3.00853 15.3928 3.00414Z" fill="white"/>
<path d="M10.8174 4.38879C10.8144 4.41058 10.8088 4.43016 10.7991 4.45159C10.7935 4.45176 10.792 4.45009 10.7885 4.44575C10.792 4.4248 10.7975 4.40652 10.8062 4.3854C10.8113 4.3839 10.8131 4.38524 10.8174 4.38879Z" fill="white"/>
<path d="M15.2638 2.90536C15.2773 2.914 15.2909 2.92263 15.3037 2.93769C15.3017 2.94598 15.3005 2.94785 15.2992 2.94972C15.2857 2.94109 15.2721 2.93245 15.2593 2.91739C15.2613 2.9091 15.2625 2.90723 15.2638 2.90536Z" fill="white"/>
<path d="M11.8868 2.872C11.8782 2.8815 11.8677 2.88821 11.8523 2.89455C11.8459 2.89248 11.8445 2.89077 11.843 2.88907C11.8524 2.88103 11.8619 2.873 11.8759 2.86452C11.882 2.86577 11.8834 2.86748 11.8868 2.872Z" fill="white"/>
<path d="M15.2427 2.99158C15.2571 2.99433 15.2693 2.99959 15.282 3.00946C15.2808 3.01557 15.2791 3.01706 15.2747 3.02049C15.2617 3.01668 15.2515 3.01092 15.239 3.00237C15.2379 2.99776 15.2392 2.99592 15.2427 2.99158Z" fill="white"/>
<path d="M11.8368 2.997C11.8287 3.0059 11.8188 3.01199 11.8061 3.02044C11.8015 3.02142 11.7997 3.02006 11.7955 3.01638C11.8024 3.00604 11.8119 2.998 11.8259 2.98952C11.832 2.99077 11.8334 2.99248 11.8368 2.997Z" fill="white"/>
<path d="M15.1053 3.00415C15.1211 3.00988 15.1348 3.01817 15.1482 3.03151C15.1464 3.03806 15.1447 3.03956 15.1431 3.04107C15.1301 3.03341 15.1172 3.02574 15.1017 3.01513C15.1005 3.01036 15.1018 3.00853 15.1053 3.00415Z" fill="white"/>
<path d="M11.7445 3.17747C11.7332 3.18245 11.7273 3.18683 11.7222 3.19064C11.7178 3.18717 11.7162 3.1859 11.7146 3.18463C11.7278 3.17337 11.7411 3.16211 11.7543 3.15085C11.7567 3.15362 11.759 3.15639 11.7614 3.15917C11.7575 3.16507 11.7536 3.17097 11.7445 3.17747Z" fill="white"/>
<path d="M11.8493 2.89699C11.8406 2.90656 11.8301 2.91332 11.8148 2.91964C11.8084 2.91749 11.807 2.91578 11.8055 2.91406C11.8153 2.90604 11.8251 2.89801 11.8389 2.88953C11.8445 2.89077 11.8459 2.89248 11.8493 2.89699Z" fill="white"/>
<path d="M11.7824 2.94101C11.7726 2.94904 11.7629 2.95706 11.749 2.96555C11.7435 2.96431 11.742 2.9626 11.7387 2.95806C11.7473 2.9485 11.7578 2.94177 11.7732 2.93546C11.7795 2.93759 11.781 2.9393 11.7824 2.94101Z" fill="white"/>
<path d="M15.2199 3.07651C15.2327 3.08429 15.2455 3.09208 15.2584 3.09987C15.257 3.10283 15.2556 3.10578 15.2542 3.10874C15.2414 3.10318 15.2286 3.09761 15.2153 3.08654C15.2166 3.07952 15.2182 3.07802 15.2199 3.07651Z" fill="white"/>
<path d="M11.8575 3.09095C11.8451 3.09945 11.8328 3.10794 11.8204 3.11644C11.8179 3.11317 11.8153 3.10991 11.8128 3.10665C11.8226 3.09985 11.8324 3.09305 11.8476 3.08604C11.8546 3.08755 11.856 3.08925 11.8575 3.09095Z" fill="white"/>
<path d="M16.0203 3.92603C16.0106 3.91849 16.0032 3.9085 15.9967 3.8923C15.999 3.88429 16.0003 3.88251 16.0017 3.88072C16.0083 3.89122 16.015 3.90172 16.0242 3.91522C16.0253 3.92001 16.024 3.92179 16.0203 3.92603Z" fill="white"/>
<path d="M11.0825 3.89094C11.0767 3.90249 11.0708 3.91403 11.0613 3.92701C11.056 3.92678 11.0545 3.92512 11.0511 3.9207C11.0554 3.90712 11.0617 3.8963 11.073 3.88571C11.0795 3.88762 11.081 3.88928 11.0825 3.89094Z" fill="white"/>
<path d="M15.9953 3.88852C15.9856 3.88098 15.9782 3.871 15.9716 3.85477C15.9739 3.84671 15.9752 3.8449 15.9765 3.84308C15.9832 3.85362 15.9899 3.86416 15.9992 3.8777C16.0003 3.8825 15.999 3.88429 15.9953 3.88852Z" fill="white"/>
<path d="M11.1075 3.85345C11.1017 3.86499 11.0958 3.87654 11.0863 3.88952C11.081 3.88929 11.0795 3.88762 11.076 3.88321C11.0804 3.86959 11.0868 3.85874 11.0981 3.84816C11.1045 3.85011 11.106 3.85178 11.1075 3.85345Z" fill="white"/>
<path d="M15.2578 2.91349C15.2467 2.91247 15.2379 2.90894 15.2266 2.90254C15.2254 2.89782 15.2267 2.89596 15.2302 2.89159C15.2413 2.8926 15.2501 2.89612 15.2613 2.90251C15.2625 2.90723 15.2613 2.9091 15.2578 2.91349Z" fill="white"/>
<path d="M11.7763 2.93301C11.7823 2.9251 11.7902 2.92004 11.8018 2.91452C11.807 2.91578 11.8084 2.91749 11.8117 2.92208C11.8056 2.93 11.7978 2.93504 11.7862 2.94055C11.781 2.93929 11.7795 2.93758 11.7763 2.93301Z" fill="white"/>
<path d="M15.9489 3.82444C15.9431 3.81603 15.9372 3.80763 15.9305 3.7956C15.9296 3.79198 15.9286 3.79291 15.9286 3.79291C15.9379 3.79684 15.9472 3.80078 15.9547 3.81186C15.9515 3.82082 15.9502 3.82263 15.9489 3.82444Z" fill="white"/>
<path d="M11.118 3.81413C11.1235 3.8061 11.1291 3.79807 11.1386 3.7894C11.1426 3.78876 11.1416 3.78787 11.1416 3.78787C11.1387 3.79824 11.1358 3.80861 11.1277 3.81906C11.121 3.81747 11.1195 3.8158 11.118 3.81413Z" fill="white"/>
<path d="M11.895 3.06595C11.885 3.07337 11.875 3.08078 11.8613 3.08958C11.856 3.08925 11.8546 3.08754 11.8513 3.08302C11.8599 3.07349 11.8703 3.06679 11.8857 3.06047C11.8921 3.06255 11.8935 3.06425 11.895 3.06595Z" fill="white"/>
<path d="M15.9055 3.76606C15.897 3.7536 15.8885 3.74114 15.8799 3.72868C15.8833 3.72622 15.8866 3.72376 15.8899 3.7213C15.8967 3.73112 15.9035 3.74095 15.9106 3.75629C15.909 3.76323 15.9073 3.76465 15.9055 3.76606Z" fill="white"/>
<path d="M11.1593 3.75776C11.1673 3.74505 11.1753 3.73234 11.1833 3.71964C11.1862 3.72092 11.1891 3.72221 11.1921 3.72349C11.1875 3.73635 11.183 3.7492 11.1716 3.76186C11.163 3.76036 11.1611 3.75906 11.1593 3.75776Z" fill="white"/>
<path d="M15.8472 3.67532C15.8598 3.68379 15.8683 3.69627 15.8768 3.70874C15.8732 3.71105 15.8696 3.71335 15.8659 3.71566C15.8583 3.70355 15.8507 3.69144 15.8472 3.67532Z" fill="white"/>
<path d="M11.2185 3.70421C11.2166 3.69823 11.2156 3.68666 11.2147 3.67509C11.2204 3.67584 11.226 3.67658 11.2317 3.67732C11.2276 3.68442 11.2235 3.69152 11.2185 3.70421Z" fill="white"/>
<path d="M15.1824 3.05151C15.1939 3.05735 15.2055 3.06319 15.2184 3.07277C15.2182 3.07802 15.2166 3.07953 15.2121 3.08298C15.1985 3.07859 15.1877 3.07226 15.1771 3.06098C15.179 3.05452 15.1807 3.05302 15.1824 3.05151Z" fill="white"/>
<path d="M15.2956 3.12804C15.2897 3.12993 15.2781 3.13088 15.2666 3.13184C15.2673 3.12616 15.268 3.12048 15.2687 3.11481C15.2758 3.11891 15.283 3.12301 15.2956 3.12804Z" fill="white"/>
<path d="M11.8887 3.05804C11.8973 3.04852 11.9078 3.04181 11.9231 3.03548C11.9295 3.03756 11.931 3.03926 11.9325 3.04096C11.9225 3.04837 11.9125 3.05579 11.8988 3.06458C11.8935 3.06426 11.8921 3.06255 11.8887 3.05804Z" fill="white"/>
<path d="M11.9262 3.03303C11.9343 3.02414 11.9442 3.01807 11.9569 3.00965C11.9615 3.00866 11.9632 3.01003 11.9675 3.01371C11.9599 3.02342 11.95 3.03082 11.9363 3.03958C11.931 3.03925 11.9296 3.03755 11.9262 3.03303Z" fill="white"/>
<path d="M15.3167 3.15608C15.3327 3.15934 15.3449 3.1668 15.3571 3.17425C15.3549 3.1779 15.3527 3.18156 15.3504 3.18521C15.3379 3.1769 15.3253 3.16859 15.3167 3.15608Z" fill="white"/>
<path d="M15.3052 2.94159C15.3162 2.9426 15.325 2.94614 15.3363 2.95254C15.3375 2.95726 15.3363 2.95912 15.3328 2.96349C15.3217 2.96248 15.3129 2.95895 15.3017 2.95257C15.3005 2.94785 15.3017 2.94598 15.3052 2.94159Z" fill="white"/>
<path d="M15.4153 3.23002C15.3992 3.22729 15.387 3.22052 15.3748 3.21375C15.3767 3.21001 15.3786 3.20627 15.3805 3.20253C15.3935 3.21035 15.4064 3.21817 15.4153 3.23002Z" fill="white"/>
<path d="M15.1746 3.05791C15.163 3.0559 15.1543 3.05201 15.1443 3.04459C15.1447 3.03957 15.1464 3.03807 15.1509 3.0347C15.1624 3.03672 15.1712 3.0406 15.1812 3.048C15.1807 3.05302 15.179 3.05452 15.1746 3.05791Z" fill="white"/>
<path d="M15.478 3.29352C15.4688 3.28707 15.4595 3.28063 15.4503 3.27418C15.4561 3.26776 15.4619 3.26135 15.4677 3.25493C15.4719 3.26534 15.4761 3.27574 15.4788 3.29021C15.4772 3.29426 15.478 3.29352 15.478 3.29352Z" fill="white"/>
<path d="M15.9703 3.85101C15.9632 3.84571 15.9584 3.83795 15.9513 3.82731C15.9502 3.82264 15.9516 3.82083 15.9552 3.81656C15.9623 3.82185 15.967 3.8296 15.9742 3.84022C15.9752 3.8449 15.9739 3.84672 15.9703 3.85101Z" fill="white"/>
<path d="M11.1011 3.84564C11.1031 3.83409 11.107 3.82533 11.1144 3.81535C11.1194 3.8158 11.1209 3.81747 11.1243 3.82195C11.1223 3.83351 11.1184 3.84226 11.111 3.85223C11.106 3.85177 11.1045 3.8501 11.1011 3.84564Z" fill="white"/>
<path d="M15.9301 3.79156C15.923 3.78514 15.9155 3.77915 15.9068 3.76961C15.9073 3.76465 15.909 3.76323 15.9136 3.75996C15.9214 3.76695 15.9263 3.77579 15.9299 3.78877C15.9287 3.79292 15.9296 3.79199 15.9301 3.79156Z" fill="white"/>
<path d="M11.1674 3.76385C11.1632 3.77387 11.1564 3.7817 11.1456 3.7887C11.1416 3.78788 11.1426 3.78878 11.143 3.78919C11.1468 3.78068 11.1501 3.77175 11.1564 3.76029C11.1612 3.75907 11.163 3.76037 11.1674 3.76385Z" fill="white"/>
<path d="M15.8197 3.64903C15.8108 3.64107 15.8067 3.62983 15.8025 3.6186C15.8055 3.61752 15.8086 3.61644 15.8117 3.61536C15.8159 3.62549 15.8202 3.63562 15.8197 3.64903Z" fill="white"/>
<path d="M11.2558 3.64908C11.2552 3.63572 11.2594 3.62553 11.2635 3.61534C11.2667 3.61641 11.2698 3.61748 11.2729 3.61855C11.2688 3.62978 11.2647 3.64102 11.2558 3.64908Z" fill="white"/>
<path d="M11.7919 3.14029C11.7814 3.14056 11.7766 3.14003 11.7718 3.1395C11.7806 3.13393 11.7894 3.12837 11.7982 3.1228C11.798 3.12836 11.7978 3.13392 11.7919 3.14029Z" fill="white"/>
<path d="M11.328 3.54902C11.3345 3.53981 11.3409 3.5306 11.3474 3.52139C11.3538 3.52718 11.3601 3.53296 11.3665 3.53874C11.3561 3.54295 11.3457 3.54715 11.3313 3.54982C11.3273 3.54828 11.328 3.54902 11.328 3.54902Z" fill="white"/>
<path d="M11.6893 3.22321C11.6765 3.2283 11.6679 3.22962 11.6594 3.23093C11.659 3.22639 11.6587 3.22185 11.6584 3.21732C11.6701 3.21802 11.6818 3.21873 11.6893 3.22321Z" fill="white"/>
<path d="M11.3269 3.54791C11.3262 3.557 11.3259 3.56646 11.3255 3.57592C11.3221 3.57491 11.3186 3.5739 11.3151 3.57288C11.3171 3.56723 11.3192 3.56158 11.3246 3.55247C11.328 3.54902 11.3273 3.54829 11.3269 3.54791Z" fill="white"/>
<path d="M15.9303 4.04167C15.9355 4.04615 15.9385 4.0532 15.9416 4.06024C15.9374 4.0586 15.9332 4.05695 15.9266 4.05252C15.9255 4.0479 15.9268 4.04607 15.9303 4.04167Z" fill="white"/>
<path d="M11.1491 4.04717C11.1454 4.05391 11.1399 4.05785 11.1344 4.06179C11.1349 4.05504 11.1354 4.0483 11.1395 4.04034C11.1444 4.04088 11.1458 4.04262 11.1491 4.04717Z" fill="white"/>
<path d="M15.7394 3.55719C15.7469 3.56027 15.7544 3.56317 15.7616 3.56681C15.7621 3.56707 15.7599 3.57277 15.7589 3.57594C15.754 3.57241 15.749 3.56888 15.7421 3.56086C15.7402 3.55637 15.7394 3.55719 15.7394 3.55719Z" fill="white"/>
<path d="M15.7406 3.55596C15.7358 3.548 15.7306 3.54043 15.7254 3.53286C15.728 3.53124 15.7307 3.52962 15.7334 3.528C15.7368 3.53428 15.7402 3.54056 15.7415 3.55201C15.7394 3.55718 15.7402 3.55636 15.7406 3.55596Z" fill="white"/>
<path d="M15.4769 3.29463C15.4859 3.29533 15.4954 3.29566 15.5049 3.296C15.5038 3.29947 15.5028 3.30294 15.5018 3.30641C15.4962 3.30439 15.4905 3.30237 15.4814 3.29693C15.478 3.29352 15.4772 3.29426 15.4769 3.29463Z" fill="white"/>
<path d="M11.5893 3.28546C11.5862 3.29294 11.5834 3.30051 11.5797 3.30771C11.5795 3.30822 11.5738 3.30599 11.5706 3.30503C11.5741 3.30007 11.5776 3.2951 11.5857 3.28819C11.5901 3.28625 11.5893 3.28546 11.5893 3.28546Z" fill="white"/>
<path d="M11.5905 3.28665C11.5985 3.28185 11.6061 3.27665 11.6136 3.27145C11.6153 3.27411 11.6169 3.27677 11.6185 3.27943C11.6122 3.28283 11.6059 3.28622 11.5945 3.28753C11.5893 3.28545 11.5901 3.28624 11.5905 3.28665Z" fill="white"/>
<path d="M15.6289 3.09521C15.6263 3.10063 15.6206 3.10236 15.6149 3.1029C15.6138 3.10299 15.6123 3.09819 15.611 3.09565C15.616 3.09413 15.6209 3.09262 15.6289 3.09521Z" fill="white"/>
<path d="M11.4623 3.10187C11.4542 3.10388 11.4498 3.10271 11.4455 3.10155C11.4466 3.09857 11.4484 3.09292 11.4487 3.093C11.4546 3.0945 11.4604 3.09667 11.4623 3.10187Z" fill="white"/>
<path d="M12.9341 2.43973C12.9349 2.43718 12.9392 2.43532 12.944 2.43602C12.9422 2.43919 12.9399 2.4398 12.9341 2.43973Z" fill="white"/>
<path d="M14.1683 8.37754C14.0694 8.39422 13.9764 8.41949 13.8822 8.42564C13.715 8.43655 13.547 8.44003 13.3793 8.43902C13.1485 8.43763 12.9251 8.38542 12.7033 8.32662C12.6505 8.31259 12.5992 8.29255 12.5482 8.2682C13.2082 8.48667 13.8671 8.48676 14.5261 8.26109C14.5271 8.26726 14.5281 8.27343 14.5291 8.2796C14.4106 8.31223 14.2922 8.34487 14.1683 8.37754Z" fill="white"/>
<path d="M12.1816 8.11505C12.1455 8.09747 12.1141 8.08032 12.0828 8.06317C12.0848 8.05911 12.0868 8.05506 12.0888 8.05101C12.1772 8.09476 12.2656 8.13852 12.354 8.18227C12.3518 8.18691 12.3497 8.19155 12.3476 8.19618C12.2938 8.16928 12.2401 8.14239 12.1816 8.11505Z" fill="white"/>
<path d="M14.9594 8.0813C14.88 8.12166 14.8041 8.15879 14.7282 8.19591C14.7261 8.19149 14.7241 8.18707 14.722 8.18265C14.8097 8.13868 14.8974 8.09471 14.9851 8.05074C14.987 8.054 14.9889 8.05727 14.9907 8.06053C14.9814 8.06638 14.9721 8.07223 14.9594 8.0813Z" fill="white"/>
</g>
<defs>
<clipPath id="clip0_5_123">
<rect width="27.08" height="9.9" fill="white"/>
</clipPath>
</defs>
</svg>
